<svg width="120" height="120" viewBox="0 0 120 120" fill="none" xmlns="http://www.w3.org/2000/svg">
<mask id="mask0_4249_18054" style="mask-type:alpha" maskUnits="userSpaceOnUse" x="26" y="24" width="62" height="72">
<path fill-rule="evenodd" clip-rule="evenodd" d="M26 24H88V96H26V24ZM36 39H74V42H36V39ZM64 51H36V54H64V51Z" fill="#D9D9D9"/>
</mask>
<g mask="url(#mask0_4249_18054)">
<g filter="url(#filter0_f_4249_18054)">
<path fill-rule="evenodd" clip-rule="evenodd" d="M94 90L94 30L78 30L78 90L94 90Z" fill="#1368FB"/>
</g>
</g>
<path fill-rule="evenodd" clip-rule="evenodd" d="M88 90L88 30L94 30L94 90L88 90Z" fill="#1368FB"/>
<path fill-rule="evenodd" clip-rule="evenodd" d="M26 24H88V96H26V24ZM36 39H74V42H36V39ZM64 51H36V54H64V51Z" fill="#9DD0FF" fill-opacity="0.8"/>
<defs>
<filter id="filter0_f_4249_18054" x="58" y="10" width="56" height="100" filterUnits="userSpaceOnUse" color-interpolation-filters="sRGB">
<feFlood flood-opacity="0" result="BackgroundImageFix"/>
<feBlend mode="normal" in="SourceGraphic" in2="BackgroundImageFix" result="shape"/>
<feGaussianBlur stdDeviation="10" result="effect1_foregroundBlur_4249_18054"/>
</filter>
</defs>
</svg>
