<svg width="14" height="14" viewBox="0 0 14 14" fill="none" xmlns="http://www.w3.org/2000/svg">
<path fill-rule="evenodd" clip-rule="evenodd" d="M1.75 6.41667C1.75 3.85 3.85 1.75 6.41667 1.75C8.98333 1.75 11.0833 3.85 11.0833 6.41667C11.0833 7.49114 10.7153 8.48383 10.0991 9.27491L12.1644 11.3402C12.2783 11.4541 12.2783 11.6388 12.1644 11.7527L11.7519 12.1652C11.638 12.2791 11.4533 12.2791 11.3394 12.1652L9.27405 10.0998C8.48311 10.7156 7.49075 11.0833 6.41667 11.0833C3.85 11.0833 1.75 8.98333 1.75 6.41667ZM9.91667 6.41667C9.91667 4.49167 8.34167 2.91667 6.41667 2.91667C4.49167 2.91667 2.91667 4.49167 2.91667 6.41667C2.91667 8.34167 4.49167 9.91667 6.41667 9.91667C8.34167 9.91667 9.91667 8.34167 9.91667 6.41667Z" fill="#3C3C43" fill-opacity="0.6"/>
</svg>
