<svg width="20" height="20" viewBox="0 0 20 20" fill="none" xmlns="http://www.w3.org/2000/svg">
<path d="M17.4201 8.90204C16.828 4.95913 13.2269 2.17956 9.30326 2.54845C9.07415 2.56999 8.91722 2.78342 8.9514 3.01099L9.07515 3.83508C9.10932 4.06265 9.32188 4.21779 9.5513 4.19995C12.5641 3.96569 15.3166 6.11717 15.7719 9.14954C15.9811 10.5424 15.673 11.8971 15.018 12.9884L13.8604 12.1331C13.6709 11.9931 13.2712 12.1374 13.3083 12.3846L12.6909 16.6907C12.658 17.0327 12.9424 17.2428 13.2596 17.1109L17.2893 15.326C17.5241 15.2065 17.557 14.8645 17.3675 14.7244L16.3632 13.9824C17.2687 12.546 17.6972 10.7476 17.4201 8.90204Z" fill="white"/>
<path d="M2.71723 4.70554L6.74686 2.92068C7.06412 2.78877 7.34847 2.99888 7.31556 3.34089L6.69817 7.64698C6.73529 7.89421 6.33562 8.03849 6.14605 7.89843L5.00051 7.05201C4.33555 8.20335 4.02742 9.5023 4.23461 10.882C4.68996 13.9144 7.44239 16.0659 10.4552 15.8316C10.6847 15.8138 10.8972 15.9689 10.9314 16.1965L11.0551 17.0206C11.0893 17.2481 10.9324 17.4616 10.7033 17.4831C6.77966 17.852 3.1785 15.0724 2.58642 11.1295C2.30546 9.25849 2.76189 7.52592 3.65323 6.05653L2.63903 5.30715C2.44946 5.16708 2.48237 4.82507 2.71723 4.70554Z" fill="white"/>
</svg>
