<svg width="24" height="24" viewBox="0 0 24 24" fill="none" xmlns="http://www.w3.org/2000/svg">
<path d="M11 6.2V17.9L9.2 16.5L8.7 16H8H4V8H8H8.7L9.2 7.6L11 6.2ZM12.1 3C11.9 3 11.7 3.1 11.5 3.2L8 6H3C2.4 6 2 6.4 2 7V17C2 17.6 2.4 18 3 18H8L11.5 20.8C11.7 20.9 11.9 21 12.1 21C12.5 21 13 20.6 13 20.1V3.9C13 3.4 12.5 3 12.1 3Z" fill="black"/>
<path d="M21.8392 10.3891C22.0345 10.1938 22.0345 9.87724 21.8392 9.68198L21.1321 8.97487C20.9368 8.77961 20.6203 8.77961 20.425 8.97487L18.6572 10.7426L16.8895 8.97487C16.6942 8.77961 16.3776 8.77961 16.1824 8.97487L15.4752 9.68198C15.28 9.87724 15.28 10.1938 15.4752 10.3891L17.243 12.1569L15.4752 13.9246C15.28 14.1199 15.28 14.4365 15.4752 14.6317L16.1824 15.3388C16.3776 15.5341 16.6942 15.5341 16.8895 15.3388L18.6572 13.5711L20.425 15.3388C20.6203 15.5341 20.9368 15.5341 21.1321 15.3388L21.8392 14.6317C22.0345 14.4365 22.0345 14.1199 21.8392 13.9246L20.0714 12.1569L21.8392 10.3891Z" fill="black"/>
</svg>
