<svg width="20" height="20" viewBox="0 0 20 20" fill="none" xmlns="http://www.w3.org/2000/svg">
<path d="M10.0002 2.66136C13.9602 2.66136 17.2003 5.90142 17.2003 9.86149C17.2003 13.8216 13.9602 17.0616 10.0002 17.0616C6.04009 17.0616 2.80003 13.8216 2.80003 9.86149C2.80003 5.90142 6.04009 2.66136 10.0002 2.66136ZM10.0002 0.861328C5.05007 0.861328 1 4.9114 1 9.86149C1 14.8116 5.05007 18.8617 10.0002 18.8617C14.9503 18.8617 19.0003 14.8116 19.0003 9.86149C19.0003 4.9114 15.0403 0.861328 10.0002 0.861328Z" fill="black"/>
<path fill-rule="evenodd" clip-rule="evenodd" d="M13.9838 10.6854L8.50049 13.8778C8.03382 14.2325 7.33382 13.7596 7.33382 13.1684V6.78351C7.33382 6.19232 8.03382 5.83759 8.50049 6.07407L13.9838 9.26651C14.4505 9.62122 14.4505 10.3307 13.9838 10.6854Z" fill="black"/>
</svg>
