<svg width="20" height="20" viewBox="0 0 20 20" fill="none" xmlns="http://www.w3.org/2000/svg">
<path fill-rule="evenodd" clip-rule="evenodd" d="M9.16667 1.66699C7.78595 1.66699 6.66667 2.78628 6.66667 4.16699V5.00033H5C3.61929 5.00033 2.5 6.11961 2.5 7.50033V15.8337C2.5 17.2144 3.61929 18.3337 5 18.3337H10.8333C12.214 18.3337 13.3333 17.2144 13.3333 15.8337V15.0003H15C16.3807 15.0003 17.5 13.881 17.5 12.5003V4.16699C17.5 2.78628 16.3807 1.66699 15 1.66699H9.16667ZM13.3333 13.3337H15C15.4602 13.3337 15.8333 12.9606 15.8333 12.5003V4.16699C15.8333 3.70675 15.4602 3.33366 15 3.33366H9.16667C8.70643 3.33366 8.33333 3.70675 8.33333 4.16699V5.00033H10.8333C12.214 5.00033 13.3333 6.11961 13.3333 7.50033V13.3337ZM4.16667 7.50033C4.16667 7.04009 4.53976 6.66699 5 6.66699H10.8333C11.2936 6.66699 11.6667 7.04009 11.6667 7.50033V15.8337C11.6667 16.2939 11.2936 16.667 10.8333 16.667H5C4.53976 16.667 4.16667 16.2939 4.16667 15.8337V7.50033Z" fill="black"/>
</svg>
