<svg width="24" height="30" viewBox="0 0 24 30" fill="none" xmlns="http://www.w3.org/2000/svg">
<path fill-rule="evenodd" clip-rule="evenodd" d="M16.5 7.5C16.5 5.01472 14.4853 3 12 3C9.51472 3 7.5 5.01472 7.5 7.5V15C7.5 17.4853 9.51472 19.5 12 19.5C14.4853 19.5 16.5 17.4853 16.5 15V7.5ZM12 0C7.85786 0 4.5 3.35786 4.5 7.5V15C4.5 19.1421 7.85786 22.5 12 22.5C16.1421 22.5 19.5 19.1421 19.5 15V7.5C19.5 3.35786 16.1421 0 12 0ZM2.25 10.5C2.66421 10.5 3 10.8358 3 11.25V15C3 19.9706 7.02944 24 12 24C16.9706 24 21 19.9706 21 15V11.25C21 10.8358 21.3358 10.5 21.75 10.5H23.25C23.6642 10.5 24 10.8358 24 11.25V15C24 21.1194 19.4195 26.169 13.5 26.9072V29.25C13.5 29.6642 13.1642 30 12.75 30H11.25C10.8358 30 10.5 29.6642 10.5 29.25V26.9072C4.58053 26.169 0 21.1194 0 15V11.25C0 10.8358 0.335786 10.5 0.75 10.5H2.25Z" fill="#206CFF"/>
</svg>
