<svg width="24" height="24" viewBox="0 0 24 24" fill="none" xmlns="http://www.w3.org/2000/svg">
<g filter="url(#filter0_b_3417_2361)">
<path d="M0.642255 8.95187C1.24208 8.502 2.03078 8.18796 2.88962 8.01074C2.26671 8.25816 1.79749 8.7929 1.593 9.31093C1.48879 9.65075 1.19911 10.4606 1.19911 11.2267C1.09005 10.8341 0.957356 10.4087 0.520105 10.2451C0.452952 9.82253 0.569544 9.0064 0.642255 8.95187Z" fill="black" fill-opacity="0.2"/>
</g>
<g filter="url(#filter1_b_3417_2361)">
<path d="M23.3577 8.95193C22.7579 8.50206 21.9992 8.19285 21.1404 8.01562C21.7633 8.26305 22.1729 8.75911 22.3773 9.27714C22.4816 9.61695 22.8009 10.4607 22.8009 11.2267C22.9099 10.8341 23.0426 10.4088 23.4799 10.2452C23.547 9.82259 23.4305 9.00646 23.3577 8.95193Z" fill="black" fill-opacity="0.2"/>
</g>
<g filter="url(#filter2_b_3417_2361)">
<path fill-rule="evenodd" clip-rule="evenodd" d="M16.8302 7.21969C17.4118 7.20282 18.0626 7.22131 18.7751 7.29224C19.5652 7.37091 20.464 7.55048 21.2375 7.9439C22.0257 8.34474 22.7424 9.00243 22.9969 10.0328C23.3061 11.2844 23.163 12.7925 22.6814 14.029C22.214 15.2293 21.3014 16.4589 19.8664 16.6411C18.5485 16.8084 17.266 16.9022 16.1513 16.5191C14.9573 16.1087 14.0898 15.2078 13.4704 13.7243C13.2533 13.2042 13.0217 12.5848 12.8437 12.086C12.7544 11.8358 12.6772 11.6118 12.6208 11.4417C12.5927 11.3571 12.5686 11.2823 12.5504 11.2225L12.5486 11.2167L12.5486 11.2166C12.5387 11.1847 12.5067 11.0808 12.4945 10.9882C12.4844 10.9104 12.4773 10.8338 12.4733 10.7583C12.3301 10.7362 12.1631 10.7197 11.9839 10.7197C11.8186 10.7197 11.6685 10.7337 11.5408 10.7529C11.5368 10.8301 11.5297 10.9086 11.5193 10.9882C11.5072 11.0808 11.4751 11.1847 11.4652 11.2166L11.4652 11.2167L11.4634 11.2225C11.4452 11.2823 11.4211 11.3571 11.393 11.4417C11.3366 11.6118 11.2594 11.8358 11.1701 12.086C10.9921 12.5848 10.7606 13.2042 10.5434 13.7243C9.924 15.2078 9.05653 16.1087 7.8625 16.5191C6.74784 16.9022 5.46535 16.8084 4.14739 16.6411C2.71242 16.4589 1.79985 15.2293 1.33241 14.029C0.850832 12.7925 0.707714 11.2844 1.01689 10.0328C1.27141 9.00243 1.98811 8.34474 2.77628 7.9439C3.54983 7.55048 4.44858 7.37091 5.23867 7.29224C5.95117 7.22131 6.60205 7.20282 7.18361 7.21969C8.19474 7.24903 9.29836 7.55392 10.1455 8.14239C10.4623 8.36244 10.7538 8.63203 10.9878 8.94812C11.2449 8.89397 11.5871 8.84468 11.9839 8.84468C12.3958 8.84468 12.7572 8.8978 13.0225 8.95284C13.2571 8.63472 13.55 8.36353 13.8683 8.14239C14.7154 7.55392 15.8191 7.24903 16.8302 7.21969ZM18.6067 8.98388C17.9667 8.92016 17.3885 8.90421 16.8795 8.91898C16.1373 8.94051 15.3684 9.17028 14.8382 9.53858C14.3422 9.88311 14.1335 10.2774 14.175 10.7218L14.1766 10.7269C14.1891 10.7681 14.2084 10.8284 14.2344 10.9066C14.2859 11.0619 14.3588 11.2734 14.4449 11.5148C14.6177 11.9992 14.8381 12.5877 15.0391 13.0693C15.524 14.2306 16.0841 14.6984 16.7039 14.9114C17.4031 15.1517 18.3207 15.1237 19.6523 14.9546C20.1567 14.8906 20.7124 14.4005 21.0973 13.4121C21.4681 12.46 21.5615 11.3106 21.3465 10.4405C21.2447 10.0281 20.9603 9.71015 20.4669 9.45919C19.9588 9.2008 19.2954 9.05244 18.6067 8.98388ZM7.13431 8.91898C6.62528 8.90421 6.04713 8.92016 5.40709 8.98388C4.71844 9.05244 4.05498 9.2008 3.54692 9.45919C3.05346 9.71015 2.76914 10.0281 2.66729 10.4405C2.45236 11.3106 2.54573 12.46 2.91652 13.4121C3.30144 14.4005 3.8571 14.8906 4.3615 14.9546C5.69309 15.1237 6.61075 15.1517 7.30992 14.9114C7.92971 14.6984 8.48976 14.2306 8.97466 13.0693C9.17574 12.5877 9.39612 11.9992 9.56894 11.5148C9.65506 11.2734 9.72794 11.0619 9.77944 10.9066C9.80537 10.8284 9.82469 10.7681 9.83724 10.7269L9.83879 10.7218C9.88028 10.2774 9.67159 9.88311 9.17561 9.53858C8.64543 9.17028 7.87651 8.94051 7.13431 8.91898Z" fill="black" fill-opacity="0.2"/>
</g>
<defs>
<filter id="filter0_b_3417_2361" x="-0.0520527" y="7.45869" width="3.49375" height="4.31993" filterUnits="userSpaceOnUse" color-interpolation-filters="sRGB">
<feFlood flood-opacity="0" result="BackgroundImageFix"/>
<feGaussianBlur in="BackgroundImageFix" stdDeviation="0.276026"/>
<feComposite in2="SourceAlpha" operator="in" result="effect1_backgroundBlur_3417_2361"/>
<feBlend mode="normal" in="SourceGraphic" in2="effect1_backgroundBlur_3417_2361" result="shape"/>
</filter>
<filter id="filter1_b_3417_2361" x="20.5886" y="7.46357" width="3.46348" height="4.31504" filterUnits="userSpaceOnUse" color-interpolation-filters="sRGB">
<feFlood flood-opacity="0" result="BackgroundImageFix"/>
<feGaussianBlur in="BackgroundImageFix" stdDeviation="0.276026"/>
<feComposite in2="SourceAlpha" operator="in" result="effect1_backgroundBlur_3417_2361"/>
<feBlend mode="normal" in="SourceGraphic" in2="effect1_backgroundBlur_3417_2361" result="shape"/>
</filter>
<filter id="filter2_b_3417_2361" x="0.301463" y="6.66181" width="23.4107" height="10.6773" filterUnits="userSpaceOnUse" color-interpolation-filters="sRGB">
<feFlood flood-opacity="0" result="BackgroundImageFix"/>
<feGaussianBlur in="BackgroundImageFix" stdDeviation="0.276026"/>
<feComposite in2="SourceAlpha" operator="in" result="effect1_backgroundBlur_3417_2361"/>
<feBlend mode="normal" in="SourceGraphic" in2="effect1_backgroundBlur_3417_2361" result="shape"/>
</filter>
</defs>
</svg>
