<svg width="24" height="24" viewBox="0 0 24 24" fill="none" xmlns="http://www.w3.org/2000/svg">
<path d="M12 4.02899C15.8276 4.02899 18.931 7.07245 18.931 10.8261C18.931 13.6667 16.4483 16.3044 12 20.2609C7.65517 16.5073 5.17241 13.8696 5.17241 10.8261C5.17241 7.07245 8.27586 4.02899 12 4.02899ZM12 2C7.03448 2 3 5.95651 3 10.8261C3 15.087 6.62069 18.3333 12 23C17.5862 18.029 21 14.8841 21 10.8261C21 5.85506 16.9655 2 12 2Z" fill="black"/>
<path d="M12 9.10146C12.7241 9.10146 13.3448 9.71014 13.3448 10.4203C13.3448 11.1304 12.7241 11.7391 12 11.7391C11.2759 11.7391 10.6552 11.1304 10.6552 10.4203C10.6552 9.71014 11.2759 9.10146 12 9.10146ZM12 7.07247C10.1379 7.07247 8.5862 8.5942 8.5862 10.4203C8.5862 12.2464 10.1379 13.7681 12 13.7681C13.8621 13.7681 15.4138 12.2464 15.4138 10.4203C15.4138 8.5942 13.9655 7.07247 12 7.07247Z" fill="black"/>
</svg>
