<svg width="24" height="24" viewBox="0 0 24 24" fill="none" xmlns="http://www.w3.org/2000/svg">
<path d="M18.4998 4.9L17.6998 5.5C17.4998 5.7 17.4998 6 17.6998 6.2C19.0998 7.8 19.9998 9.8 19.9998 12C19.9998 14.2 19.0998 16.2 17.6998 17.7C17.4998 17.9 17.4998 18.2 17.6998 18.4L18.4998 19C18.6998 19.2 18.9998 19.2 19.1998 19C20.8998 17.2 21.9998 14.7 21.9998 12C21.9998 9.3 20.8998 6.8 19.1998 4.9C18.9998 4.7 18.6998 4.7 18.4998 4.9Z" fill="#1368FB"/>
<path d="M16.0002 11.9996C16.0002 13.1996 15.5002 14.3996 14.6002 15.1996C14.4002 15.3996 14.4002 15.6996 14.6002 15.8996L15.4002 16.4996C15.6002 16.6996 15.9002 16.6996 16.1002 16.4996C17.3002 15.3996 18.0002 13.7996 18.0002 11.9996C18.0002 10.1996 17.3002 8.59961 16.1002 7.49961C15.9002 7.29961 15.6002 7.29961 15.4002 7.49961L14.6002 8.09961C14.4002 8.29961 14.4002 8.59961 14.6002 8.79961C15.5002 9.59961 16.0002 10.7996 16.0002 11.9996Z" fill="#1368FB"/>
<path d="M12.1 3C11.9 3 11.7 3.1 11.5 3.2L7 6H3C2.4 6 2 6.4 2 7V17C2 17.6 2.4 18 3 18H7L11.5 20.8C11.7 20.9 11.9 21 12.1 21C12.5 21 13 20.6 13 20.1V3.9C13 3.4 12.5 3 12.1 3Z" fill="#1368FB"/>
</svg>
