<svg width="24" height="24" viewBox="0 0 24 24" fill="none" xmlns="http://www.w3.org/2000/svg">
<rect x="3" y="5" width="18" height="14" rx="2" stroke="#3C3C43" stroke-opacity="0.6" stroke-width="2"/>
<rect x="17" y="16" width="10" height="2" rx="0.5" transform="rotate(-180 17 16)" fill="#3C3C43" fill-opacity="0.6"/>
<rect x="17" y="13" width="2" height="2" rx="0.5" transform="rotate(-180 17 13)" fill="#3C3C43" fill-opacity="0.6"/>
<rect x="17" y="10" width="2" height="2" rx="0.5" transform="rotate(-180 17 10)" fill="#3C3C43" fill-opacity="0.6"/>
<rect x="13" y="13" width="2" height="2" rx="0.5" transform="rotate(-180 13 13)" fill="#3C3C43" fill-opacity="0.6"/>
<rect x="13" y="10" width="2" height="2" rx="0.5" transform="rotate(-180 13 10)" fill="#3C3C43" fill-opacity="0.6"/>
<rect x="9" y="13" width="2" height="2" rx="0.5" transform="rotate(-180 9 13)" fill="#3C3C43" fill-opacity="0.6"/>
<rect x="9" y="10" width="2" height="2" rx="0.5" transform="rotate(-180 9 10)" fill="#3C3C43" fill-opacity="0.6"/>
</svg>
