<svg width="18" height="18" viewBox="0 0 18 18" fill="none" xmlns="http://www.w3.org/2000/svg">
<path fill-rule="evenodd" clip-rule="evenodd" d="M11.932 13.0886C12.0385 13.1952 12.2112 13.1952 12.3177 13.0886L13.0891 12.3173C13.1956 12.2108 13.1956 12.0381 13.0891 11.9316L10.1964 9.0389L13.0888 6.14646C13.1953 6.03995 13.1953 5.86727 13.0888 5.76077L12.3175 4.98938C12.2109 4.88287 12.0383 4.88287 11.9318 4.98938L9.03932 7.88182L6.14656 4.98906C6.04006 4.88255 5.86737 4.88255 5.76087 4.98906L4.98948 5.76045C4.88297 5.86696 4.88297 6.03964 4.98948 6.14614L7.88223 9.0389L4.98925 11.9319C4.88275 12.0384 4.88275 12.2111 4.98925 12.3176L5.76064 13.089C5.86715 13.1955 6.03983 13.1955 6.14634 13.089L9.03932 10.196L11.932 13.0886Z" fill="#4D4D4D" fill-opacity="0.4"/>
</svg>
