<svg width="24" height="24" viewBox="0 0 24 24" fill="none" xmlns="http://www.w3.org/2000/svg">
<path d="M16 9.25C16 10.0784 15.3284 10.75 14.5 10.75C13.6716 10.75 13 10.0784 13 9.25C13 8.42157 13.6716 7.75 14.5 7.75C15.3284 7.75 16 8.42157 16 9.25Z" fill="black"/>
<path fill-rule="evenodd" clip-rule="evenodd" d="M16.7 3.5H7.3C5.61984 3.5 4.77976 3.5 4.13803 3.82698C3.57354 4.1146 3.1146 4.57354 2.82698 5.13803C2.5 5.77976 2.5 6.61984 2.5 8.3V15.7C2.5 17.3802 2.5 18.2202 2.82698 18.862C3.1146 19.4265 3.57354 19.8854 4.13803 20.173C4.77976 20.5 5.61984 20.5 7.3 20.5H16.7C18.3802 20.5 19.2202 20.5 19.862 20.173C20.4265 19.8854 20.8854 19.4265 21.173 18.862C21.5 18.2202 21.5 17.3802 21.5 15.7V8.3C21.5 6.61984 21.5 5.77976 21.173 5.13803C20.8854 4.57354 20.4265 4.1146 19.862 3.82698C19.2202 3.5 18.3802 3.5 16.7 3.5ZM7.3 5.5H16.7C17.5731 5.5 18.1076 5.50156 18.5075 5.53423C18.6938 5.54945 18.8065 5.56857 18.875 5.58469C18.9076 5.59236 18.9276 5.59879 18.9384 5.60265C18.9488 5.60636 18.9532 5.60858 18.954 5.60899C19.1422 5.70487 19.2951 5.85785 19.391 6.04601C19.3914 6.04682 19.3936 6.05118 19.3973 6.06158C19.4012 6.07241 19.4076 6.09244 19.4153 6.125C19.4314 6.19345 19.4505 6.30617 19.4658 6.49247C19.4984 6.89239 19.5 7.42692 19.5 8.3V12.0865C17.7743 12.3811 16.188 13.3876 15.0123 14.4637C14.4391 14.9884 13.9355 15.5545 13.534 16.1112C13.0583 15.4 12.4071 14.6464 11.5896 13.9432C9.92493 12.5115 7.54063 11.265 4.5 11.0371V8.3C4.5 7.42692 4.50156 6.89239 4.53423 6.49247C4.54945 6.30617 4.56857 6.19345 4.58469 6.125C4.59236 6.09244 4.59879 6.07241 4.60265 6.06158C4.60636 6.05118 4.60858 6.04681 4.60899 6.04601C4.70487 5.85785 4.85785 5.70487 5.04601 5.60899C5.04681 5.60858 5.05118 5.60636 5.06158 5.60265C5.07241 5.59879 5.09244 5.59236 5.125 5.58469C5.19345 5.56857 5.30617 5.54945 5.49247 5.53423C5.89239 5.50156 6.42692 5.5 7.3 5.5ZM14.5158 18.5H16.7C17.5731 18.5 18.1076 18.4984 18.5075 18.4658C18.6938 18.4505 18.8065 18.4314 18.875 18.4153C18.9076 18.4076 18.9276 18.4012 18.9384 18.3973C18.9488 18.3936 18.9532 18.3914 18.954 18.391C19.1422 18.2951 19.2951 18.1422 19.391 17.954C19.3913 17.9534 19.3925 17.951 19.3946 17.9458L19.3973 17.9384C19.4012 17.9276 19.4076 17.9076 19.4153 17.875C19.4314 17.8065 19.4505 17.6938 19.4658 17.5075C19.4984 17.1076 19.5 16.5731 19.5 15.7V14.1293C18.4073 14.4019 17.2994 15.0816 16.3627 15.939C15.7637 16.4873 15.2758 17.0721 14.9452 17.5915C14.67 18.0241 14.5542 18.3321 14.5158 18.5ZM12.0009 17.4241C12.3182 17.9375 12.4466 18.3085 12.4858 18.5H7.3C6.42692 18.5 5.89239 18.4984 5.49247 18.4658C5.30617 18.4505 5.19345 18.4314 5.125 18.4153C5.09244 18.4076 5.07241 18.4012 5.06158 18.3973C5.05118 18.3936 5.04682 18.3914 5.04601 18.391C4.85785 18.2951 4.70487 18.1422 4.60899 17.954C4.60858 17.9532 4.60636 17.9488 4.60265 17.9384C4.59879 17.9276 4.59236 17.9076 4.58469 17.875C4.56857 17.8065 4.54945 17.6938 4.53423 17.5075C4.50156 17.1076 4.5 16.5731 4.5 15.7V13.0439C6.99219 13.2651 8.92969 14.2935 10.2854 15.4595C11.0544 16.1209 11.6271 16.8193 12.0009 17.4241Z" fill="black"/>
</svg>
