<svg width="24" height="24" viewBox="0 0 24 24" fill="none" xmlns="http://www.w3.org/2000/svg">
<path d="M18.6 20.6H5.29999C3.49999 20.6 2 19.1 2 17.3V6.30002C2 4.50002 3.49999 3 5.29999 3H10.2C11.2 3 12.1 3.40001 12.8 4.10001L13.7 5H18.6C20.4 5 21.9 6.50002 21.9 8.30002V17.3C21.9 19.1 20.4 20.6 18.6 20.6ZM5.19998 4.89999C4.49998 4.89999 3.89999 5.50001 3.89999 6.20001V17.2C3.89999 17.9 4.49998 18.5 5.19998 18.5H18.5C19.2 18.5 19.8 17.9 19.8 17.2V8.20001C19.8 7.50001 19.2 6.89999 18.5 6.89999H12.8L11.3 5.39999C11 5.09999 10.6 4.89999 10.1 4.89999H5.19998Z" fill="black"/>
</svg>
