<svg width="24" height="24" viewBox="0 0 24 24" fill="none" xmlns="http://www.w3.org/2000/svg">
<path fill-rule="evenodd" clip-rule="evenodd" d="M12 8C9.76744 8 8 9.76745 8 12C8 14.2326 9.76744 16 12 16C14.2326 16 16 14.2326 16 12C16 9.76745 14.2326 8 12 8ZM10 12C10 10.872 10.872 10 12 10C13.128 10 14 10.872 14 12C14 13.128 13.128 14 12 14C10.872 14 10 13.128 10 12Z" fill="black"/>
<path fill-rule="evenodd" clip-rule="evenodd" d="M9.76119 2.83398H14.3383C15.2338 2.83398 16.1294 3.32726 16.5274 4.11651L17.1244 5.10306H19.3134C20.806 5.10306 22 6.28692 22 7.76675V17.3363C22 18.8161 20.806 20 19.3134 20H4.68656C3.19403 20 2 18.8161 2 17.3363V7.76675C2 6.28692 3.19403 5.10306 4.68656 5.10306H6.87562L7.47263 4.11651C7.97014 3.32726 8.76617 2.83398 9.76119 2.83398ZM14.9353 5.10306C14.8358 4.90575 14.5373 4.80709 14.3383 4.80709H9.6617C9.36319 4.80709 9.16418 4.90575 9.06468 5.10306L7.97014 7.07617H4.68656C4.28855 7.07617 3.99005 7.37213 3.99005 7.76675V17.3363C3.99005 17.7309 4.28855 18.0269 4.68656 18.0269H19.3134C19.7114 18.0269 20.01 17.7309 20.01 17.3363V7.76675C20.01 7.37213 19.7114 7.07617 19.3134 7.07617H16.0299L14.9353 5.10306Z" fill="black"/>
</svg>
