<svg width="24" height="24" viewBox="0 0 24 24" fill="none" xmlns="http://www.w3.org/2000/svg">
<path fill-rule="evenodd" clip-rule="evenodd" d="M12 2C9.8 2 8 3.8 8 6V13C8 15.2 9.8 17 12 17C14.2 17 16 15.2 16 13V6C16 3.8 14.2 2 12 2Z" fill="#3C3C43" fill-opacity="0.6"/>
<path d="M6.5 10C6.77614 10 7 10.2239 7 10.5V13C7 15.7477 9.25229 18 12 18C14.7477 18 17 15.7477 17 13V10.5C17 10.2239 17.2239 10 17.5 10H18.5C18.7761 10 19 10.2239 19 10.5V13C19 16.5129 16.3824 19.44 13 19.9284V21.5C13 21.7761 12.7761 22 12.5 22H11.5C11.2239 22 11 21.7761 11 21.5V19.9284C7.61756 19.44 5 16.5129 5 13V10.5C5 10.2239 5.22386 10 5.5 10H6.5Z" fill="#3C3C43" fill-opacity="0.6"/>
</svg>
