<svg width="20" height="20" viewBox="0 0 20 20" fill="none" xmlns="http://www.w3.org/2000/svg">
<path d="M5 4.16634C5 3.7061 5.3731 3.33301 5.83333 3.33301H7.08333C7.54357 3.33301 7.91667 3.7061 7.91667 4.16634V15.833C7.91667 16.2932 7.54357 16.6663 7.08333 16.6663H5.83333C5.3731 16.6663 5 16.2932 5 15.833V4.16634Z" fill="black"/>
<path d="M12.0833 4.16634C12.0833 3.7061 12.4564 3.33301 12.9167 3.33301H14.1667C14.6269 3.33301 15 3.7061 15 4.16634V15.833C15 16.2932 14.6269 16.6663 14.1667 16.6663H12.9167C12.4564 16.6663 12.0833 16.2932 12.0833 15.833V4.16634Z" fill="black"/>
</svg>
