<svg width="20" height="20" viewBox="0 0 20 20" fill="none" xmlns="http://www.w3.org/2000/svg">
<path fill-rule="evenodd" clip-rule="evenodd" d="M2.51615 7.81886L3.68272 3.5854C3.76604 3.33637 4.09935 3.25336 4.266 3.41938L7.34906 6.49072C7.59904 6.73975 7.51572 7.07178 7.26574 7.15479L3.01611 8.31692C2.6828 8.39993 2.43282 8.1509 2.51615 7.81886Z" fill="black"/>
<path fill-rule="evenodd" clip-rule="evenodd" d="M10 4.16667C8.5545 4.16667 7.27689 4.7008 6.21449 5.58373C6.03751 5.73082 5.77465 5.72284 5.61763 5.55461L5.04903 4.94539C4.89202 4.77716 4.90046 4.51265 5.07585 4.36367C6.40758 3.2325 8.07643 2.5 10 2.5C14.1269 2.5 17.5 5.8731 17.5 10C17.5 14.1269 14.1269 17.5 10 17.5C6.01288 17.5 2.72936 14.3515 2.51151 10.4166C2.49879 10.1869 2.68655 10 2.91667 10H3.75C3.98012 10 4.1651 10.1872 4.18153 10.4167C4.39727 13.4309 6.93363 15.8333 10 15.8333C13.2064 15.8333 15.8333 13.2064 15.8333 10C15.8333 6.79357 13.2064 4.16667 10 4.16667Z" fill="black"/>
</svg>
