<svg width="120" height="120" viewBox="0 0 120 120" fill="none" xmlns="http://www.w3.org/2000/svg">
<g clip-path="url(#clip0_4186_14979)">
<mask id="mask0_4186_14979" style="mask-type:alpha" maskUnits="userSpaceOnUse" x="-6" y="14" width="132" height="74">
<path d="M126 14L60 88L-6 14H126Z" fill="#D9D9D9"/>
</mask>
<g mask="url(#mask0_4186_14979)">
<path fill-rule="evenodd" clip-rule="evenodd" d="M116 88C116 80.646 114.552 73.364 111.737 66.5697C108.923 59.7755 104.798 53.6021 99.598 48.402C94.3979 43.2019 88.2245 39.077 81.4303 36.2627C74.636 33.4485 67.354 32 60 32C52.646 32 45.364 33.4485 38.5697 36.2627C31.7755 39.077 25.6021 43.2019 20.402 48.402C15.2019 53.6021 11.077 59.7755 8.26274 66.5697C5.44848 73.364 4 80.646 4 88L38 88C38 75.8497 47.8497 66 60 66C72.1503 66 82 75.8497 82 88H116ZM42.3289 52.6732C47.8056 49.9336 53.8548 48.5 60 48.5C66.1452 48.5 72.1944 49.9336 77.6711 52.6732L76.3289 55.3562C71.2682 52.8247 65.6785 51.5 60 51.5C54.3216 51.5 48.7318 52.8247 43.6711 55.3562L42.3289 52.6732Z" fill="#9DD0FF" fill-opacity="0.8"/>
<circle cx="17" cy="17" r="17" transform="matrix(1 0 0 -1 43 105)" fill="#1368FB"/>
</g>
</g>
<defs>
<clipPath id="clip0_4186_14979">
<rect width="120" height="120" fill="white"/>
</clipPath>
</defs>
</svg>
