<svg width="17" height="6" viewBox="0 0 17 6" fill="none" xmlns="http://www.w3.org/2000/svg">
<path d="M0.481689 2.24C0.481689 1.45593 0.481689 1.06389 0.63428 0.764413C0.768503 0.500986 0.982676 0.286814 1.2461 0.152591C1.54558 0 1.93762 0 2.72169 0H14.2417C15.0258 0 15.4178 0 15.7173 0.152591C15.9807 0.286814 16.1949 0.500986 16.3291 0.764413C16.4817 1.06389 16.4817 1.45593 16.4817 2.24V3.76C16.4817 4.54407 16.4817 4.93611 16.3291 5.23559C16.1949 5.49901 15.9807 5.71319 15.7173 5.84741C15.4178 6 15.0258 6 14.2417 6H2.72169C1.93762 6 1.54558 6 1.2461 5.84741C0.982676 5.71319 0.768503 5.49901 0.63428 5.23559C0.481689 4.93611 0.481689 4.54407 0.481689 3.76V2.24Z" fill="#43D077"/>
</svg>
