<svg width="23" height="14" viewBox="0 0 23 14" fill="none" xmlns="http://www.w3.org/2000/svg">
<path opacity="0.8" fill-rule="evenodd" clip-rule="evenodd" d="M5.74983 0.75H17.214C18.0269 0.749993 18.6825 0.749987 19.2134 0.793364C19.76 0.838026 20.2402 0.932385 20.6844 1.15873C21.39 1.51825 21.9637 2.09193 22.3232 2.79754C22.5495 3.24175 22.6439 3.7219 22.6886 4.26853C22.7319 4.79944 22.7319 5.45505 22.7319 6.26788V7.73212C22.7319 8.54496 22.7319 9.20056 22.6886 9.73147C22.6439 10.2781 22.5495 10.7582 22.3232 11.2025C21.9637 11.9081 21.39 12.4817 20.6844 12.8413C20.2402 13.0676 19.76 13.162 19.2134 13.2066C18.6825 13.25 18.0269 13.25 17.2141 13.25H5.74981C4.93698 13.25 4.28137 13.25 3.75047 13.2066C3.20383 13.162 2.72369 13.0676 2.27947 12.8413C1.57386 12.4817 1.00018 11.9081 0.64066 11.2025C0.414319 10.7582 0.319959 10.2781 0.275297 9.73147C0.23192 9.20056 0.231926 8.54494 0.231934 7.73211V6.2679C0.231926 5.45506 0.23192 4.79944 0.275297 4.26853C0.319959 3.7219 0.414319 3.24175 0.64066 2.79754C1.00018 2.09193 1.57386 1.51825 2.27947 1.15873C2.72369 0.932385 3.20383 0.838026 3.75047 0.793364C4.28138 0.749987 4.93699 0.749993 5.74983 0.75ZM3.87261 2.28838C3.41874 2.32547 3.15797 2.3946 2.96046 2.49524C2.53709 2.71095 2.19288 3.05516 1.97717 3.47852C1.87653 3.67604 1.8074 3.9368 1.77032 4.39068C1.73252 4.85331 1.73193 5.44755 1.73193 6.3V7.7C1.73193 8.55245 1.73252 9.14669 1.77032 9.60932C1.8074 10.0632 1.87653 10.324 1.97717 10.5215C2.19288 10.9448 2.53709 11.289 2.96046 11.5048C3.15797 11.6054 3.41874 11.6745 3.87261 11.7116C4.33525 11.7494 4.92948 11.75 5.78193 11.75H17.1819C18.0344 11.75 18.6286 11.7494 19.0913 11.7116C19.5451 11.6745 19.8059 11.6054 20.0034 11.5048C20.4268 11.289 20.771 10.9448 20.9867 10.5215C21.0873 10.324 21.1565 10.0632 21.1936 9.60932C21.2313 9.14669 21.2319 8.55245 21.2319 7.7V6.3C21.2319 5.44755 21.2313 4.85331 21.1936 4.39068C21.1565 3.9368 21.0873 3.67604 20.9867 3.47852C20.771 3.05516 20.4268 2.71095 20.0034 2.49524C19.8059 2.3946 19.5451 2.32547 19.0913 2.28838C18.6286 2.25058 18.0344 2.25 17.1819 2.25H5.78193C4.92948 2.25 4.33525 2.25058 3.87261 2.28838Z" fill="black"/>
</svg>
