<svg width="16" height="16" viewBox="0 0 16 16" fill="none" xmlns="http://www.w3.org/2000/svg">
<path fill-rule="evenodd" clip-rule="evenodd" d="M8 14.1538C11.3986 14.1538 14.1538 11.3986 14.1538 8C14.1538 4.60138 11.3986 1.84615 8 1.84615C4.60138 1.84615 1.84615 4.60138 1.84615 8C1.84615 11.3986 4.60138 14.1538 8 14.1538ZM16 8C16 12.4182 12.4182 16 8 16C3.58178 16 -1.56564e-07 12.4182 -3.49691e-07 8C-5.42818e-07 3.58178 3.58178 7.9711e-07 8 6.03983e-07C12.4182 4.10857e-07 16 3.58178 16 8Z" fill="white" fill-opacity="0.1"/>
<path fill-rule="evenodd" clip-rule="evenodd" d="M16 8C16 11.2942 13.9333 14.2978 10.8574 15.4745C9.94542 15.8232 8.98419 16 7.99998 16C7.49024 16 7.0769 15.5867 7.0769 15.0769C7.0769 14.5672 7.49024 14.1538 7.99998 14.1538C8.75772 14.1538 9.49742 14.0178 10.1979 13.7499C12.5641 12.8449 14.1538 10.5342 14.1538 8C14.1538 5.46585 12.5641 3.15508 10.1979 2.25005C9.49742 1.98215 8.75772 1.84615 7.99998 1.84615C7.49024 1.84615 7.0769 1.43282 7.0769 0.923078C7.0769 0.413334 7.49024 9.35607e-07 7.99998 9.13325e-07C8.98419 8.70304e-07 9.94542 0.176821 10.8574 0.525538C13.9333 1.70215 16 4.70585 16 8" fill="url(#paint0_linear_3450_114304)"/>
<defs>
<linearGradient id="paint0_linear_3450_114304" x1="7.0769" y1="16" x2="2.38045" y2="1.5684" gradientUnits="userSpaceOnUse">
<stop stop-color="#0F58D5"/>
<stop offset="1" stop-color="#0F58D5"/>
</linearGradient>
</defs>
</svg>
