<svg width="30" height="30" viewBox="0 0 30 30" fill="none" xmlns="http://www.w3.org/2000/svg">
<path d="M0 15C0 6.71573 6.71573 0 15 0C23.2843 0 30 6.71573 30 15C30 23.2843 23.2843 30 15 30C6.71573 30 0 23.2843 0 15Z" fill="#206CFF"/>
<path fill-rule="evenodd" clip-rule="evenodd" d="M14.6363 19.8143L13.1574 21.2937C12.897 21.5541 12.4749 21.5542 12.2145 21.2938L7.22531 16.3046C6.96496 16.0443 6.96496 15.6222 7.22531 15.3618L8.23321 14.3539C8.49355 14.0936 8.91565 14.0936 9.176 14.3539L12.686 17.8636L20.9184 9.63085C21.1787 9.37049 21.6008 9.37048 21.8612 9.63084L22.8691 10.6387C23.1294 10.8991 23.1294 11.3212 22.8691 11.5815L14.6363 19.8143Z" fill="white"/>
</svg>
