<svg width="45" height="44" viewBox="0 0 45 44" fill="none" xmlns="http://www.w3.org/2000/svg">
    <path d="M7.47168 21.9996C7.47168 26.0839 9.09417 30.001 11.9822 32.8891C14.8703 35.7771 18.7873 37.3996 22.8717 37.3996C26.956 37.3996 30.8731 35.7771 33.7611 32.8891C36.6492 30.001 38.2717 26.0839 38.2717 21.9996C38.2717 17.9153 36.6492 13.9982 33.7611 11.1102C30.8731 8.2221 26.956 6.59961 22.8717 6.59961C18.7873 6.59961 14.8703 8.2221 11.9822 11.1102C9.09417 13.9982 7.47168 17.9153 7.47168 21.9996Z" fill="#35C44F"/>
    <path d="M38.3573 6.34118C34.2342 2.24659 28.7938 0 23.0181 0H22.868C16.9163 0.0427059 11.3646 2.34624 7.23117 6.48741C3.09776 10.6247 0.842108 16.1376 0.871873 22.0065C0.940461 34.1311 10.8107 44 22.8719 44C35.0016 44 44.8719 34.1311 44.8719 22.0026C44.8719 16.0768 42.5554 10.5134 38.3573 6.34118ZM22.8719 34.7859C22.2884 34.7859 21.7288 34.5541 21.3162 34.1415C20.9037 33.7289 20.6719 33.1694 20.6719 32.5859C20.6719 32.0024 20.9037 31.4428 21.3162 31.0302C21.7288 30.6177 22.2884 30.3859 22.8719 30.3859C23.4553 30.3859 24.0149 30.6177 24.4275 31.0302C24.8401 31.4428 25.0719 32.0024 25.0719 32.5859C25.0719 33.1694 24.8401 33.7289 24.4275 34.1415C24.0149 34.5541 23.4553 34.7859 22.8719 34.7859ZM24.6332 26.9785C24.6332 27.4456 24.4476 27.8936 24.1173 28.2239C23.787 28.5542 23.339 28.7398 22.8719 28.7398C22.4047 28.7398 21.9568 28.5542 21.6265 28.2239C21.2961 27.8936 21.1106 27.4456 21.1106 26.9785L19.348 12.7341C19.348 11.8006 19.7188 10.9052 20.379 10.2451C21.0391 9.58497 21.9344 9.21412 22.868 9.21412C23.8016 9.21412 24.6969 9.58497 25.357 10.2451C26.0171 10.9052 26.388 11.8006 26.388 12.7341L24.6319 26.9772L24.6332 26.9785Z" fill="#35C44F"/>
    <path d="M20.0068 13.6718C19.8339 11.9746 21.1659 10.5 22.8718 10.5C24.5778 10.5 25.9098 11.9746 25.7369 13.6718L24.3767 27.0202C24.2981 27.7923 23.6479 28.3796 22.8718 28.3796C22.0958 28.3796 21.4456 27.7923 21.3669 27.0202L20.0068 13.6718Z" fill="white"/>
    <circle cx="22.8719" cy="31.6783" r="1.82185" fill="white"/>
</svg>