<svg width="24" height="24" viewBox="0 0 24 24" fill="none" xmlns="http://www.w3.org/2000/svg">
<path fill-rule="evenodd" clip-rule="evenodd" d="M9.33333 7.66602C9.33333 8.77059 8.4379 9.66602 7.33333 9.66602C6.22876 9.66602 5.33333 8.77059 5.33333 7.66602C5.33333 6.56145 6.22876 5.66602 7.33333 5.66602C8.4379 5.66602 9.33333 6.56145 9.33333 7.66602ZM13.6667 11.666C14.7712 11.666 15.6667 10.7706 15.6667 9.66602C15.6667 8.56145 14.7712 7.66602 13.6667 7.66602C12.5621 7.66602 11.6667 8.56145 11.6667 9.66602C11.6667 10.7706 12.5621 11.666 13.6667 11.666ZM22 15.4993C22 17.3765 20.5223 18.9085 18.6667 18.9955V18.9993H18.5H2V16.666H15.1992C15.0702 16.3011 15 15.9084 15 15.4993C15 13.5664 16.567 11.9993 18.5 11.9993C20.433 11.9993 22 13.5664 22 15.4993ZM8.33333 14.666C9.25381 14.666 10 13.9198 10 12.9993C10 12.0789 9.25381 11.3327 8.33333 11.3327C7.41286 11.3327 6.66667 12.0789 6.66667 12.9993C6.66667 13.9198 7.41286 14.666 8.33333 14.666Z" fill="#57AEFF"/>
</svg>
