<svg width="28" height="28" viewBox="0 0 28 28" fill="none" xmlns="http://www.w3.org/2000/svg">
    <g id="&#230;&#147;&#141;&#228;&#189;&#156;&#232;&#161;&#140;&#228;&#184;&#186; / &#232;&#174;&#190;&#231;&#189;&#174;">
        <path id="Subtract" fill-rule="evenodd" clip-rule="evenodd"
            d="M8.74306 21.7772L8.73992 21.7772L6.05368 21.8066C5.81053 21.8093 5.58338 21.7133 5.43102 21.5413C4.42734 20.4088 3.6463 19.0748 3.15612 17.6081C3.08337 17.3904 3.11375 17.1457 3.23763 16.9365L4.60835 14.6213L4.62578 14.5919C4.7093 14.4512 4.78275 14.3275 4.81329 14.1904C4.8412 14.0651 4.8412 13.9352 4.81329 13.8099C4.78275 13.6728 4.7093 13.5491 4.62579 13.4084L4.60835 13.379L3.23762 11.0638C3.11374 10.8546 3.08336 10.6099 3.15611 10.3922C3.64629 8.92546 4.42732 7.59152 5.43098 6.45896C5.58335 6.28703 5.81049 6.19099 6.05365 6.19365L8.73984 6.22308L8.77401 6.22348C8.93758 6.22548 9.08145 6.22724 9.21546 6.18513C9.33792 6.14665 9.45042 6.0817 9.54497 5.99489C9.64844 5.89989 9.71885 5.77441 9.79891 5.63176L9.81564 5.60197L11.1347 3.25832C11.2542 3.04609 11.4513 2.89734 11.6766 2.8517C12.41 2.70314 13.1693 2.62512 13.9471 2.62512C14.7249 2.62512 15.4842 2.70315 16.2177 2.85171C16.443 2.89735 16.6401 3.0461 16.7595 3.25833L18.0786 5.60197L18.0954 5.63176C18.1754 5.77441 18.2458 5.89989 18.3493 5.99489C18.4439 6.0817 18.5563 6.14665 18.6788 6.18513C18.8128 6.22723 18.9567 6.22548 19.1203 6.22348L19.1544 6.22308L21.8406 6.19365C22.0837 6.19099 22.3109 6.28703 22.4632 6.45896C23.4669 7.59153 24.248 8.92548 24.7381 10.3923C24.8109 10.61 24.7805 10.8546 24.6566 11.0638L23.2963 13.3614L23.2859 13.379L23.2685 13.4084C23.185 13.5491 23.1115 13.6728 23.081 13.8099C23.0531 13.9352 23.0531 14.0651 23.081 14.1904C23.1115 14.3275 23.185 14.4512 23.2685 14.5919L23.2859 14.6213L24.6566 16.9364C24.7805 17.1457 24.8109 17.3903 24.7381 17.608C24.2479 19.0748 23.4669 20.4088 22.4632 21.5413C22.3109 21.7133 22.0837 21.8093 21.8406 21.8066L19.1544 21.7772L19.1203 21.7768C18.9567 21.7748 18.8128 21.7731 18.6788 21.8152C18.5563 21.8536 18.4439 21.9186 18.3493 22.0054C18.2458 22.1004 18.1754 22.2259 18.0954 22.3685L18.0786 22.3983L16.7596 24.7419C16.6401 24.9542 16.443 25.1029 16.2177 25.1485C15.4842 25.2971 14.7249 25.3751 13.9471 25.3751C13.1693 25.3751 12.41 25.2971 11.6766 25.1486C11.4512 25.1029 11.2542 24.9542 11.1347 24.7419L9.81564 22.3983L9.79891 22.3685C9.71885 22.2259 9.64844 22.1004 9.54497 22.0054C9.45042 21.9186 9.33792 21.8536 9.21547 21.8152C9.08147 21.7731 8.93761 21.7748 8.77409 21.7768L8.74306 21.7772ZM15.302 23.5305L15.4447 23.5104L16.5538 21.54L16.5637 21.5216L16.5643 21.5204C16.6086 21.4368 16.8264 21.028 17.1659 20.7164C17.4495 20.4559 17.787 20.2611 18.1544 20.1456C18.594 20.0075 19.057 20.0232 19.1515 20.0267L19.1677 20.0273L21.4332 20.0521L21.522 19.939C22.0782 19.2305 22.5373 18.4419 22.879 17.5932L22.9328 17.4596L21.7802 15.5128L21.7692 15.495L21.7685 15.4939C21.7183 15.4138 21.4732 15.0207 21.373 14.5709C21.2893 14.195 21.2893 13.8053 21.373 13.4294C21.4732 12.9796 21.7183 12.5866 21.7685 12.5065L21.7771 12.4927L22.9328 10.5407L22.879 10.4071C22.5373 9.55843 22.0782 8.76983 21.522 8.06134L21.4332 7.94822L19.1737 7.97291L19.1528 7.97358L19.1515 7.97362C19.057 7.97706 18.594 7.9928 18.1544 7.85466C17.787 7.73923 17.4495 7.54439 17.1659 7.28394C16.8264 6.97225 16.6086 6.56345 16.5643 6.47992L16.5567 6.46561L15.4447 4.48988L15.3019 4.46977C14.8591 4.40737 14.4068 4.37512 13.9471 4.37512C13.4875 4.37512 13.0353 4.40735 12.5926 4.46972L12.4499 4.48983L11.3408 6.46028L11.3309 6.47875L11.3302 6.47992C11.286 6.56345 11.0681 6.97225 10.7287 7.28394C10.445 7.54439 10.1075 7.73923 9.74017 7.85466C9.3005 7.9928 8.83754 7.97706 8.74308 7.97362L8.72691 7.97304L6.46102 7.94822L6.37221 8.06134C5.81607 8.76973 5.35706 9.55823 5.01537 10.4068L4.96157 10.5404L6.1143 12.4875L6.12535 12.5053L6.12605 12.5064C6.17626 12.5865 6.42138 12.9796 6.52157 13.4294C6.6053 13.8053 6.6053 14.195 6.52157 14.5709C6.42138 15.0207 6.17627 15.4138 6.12605 15.4938L6.11746 15.5076L4.96158 17.4599L5.01538 17.5935C5.35707 18.4421 5.81609 19.2306 6.37224 19.939L6.46104 20.0521L8.72081 20.0274L8.74176 20.0267L8.74308 20.0267C8.83756 20.0232 9.30051 20.0075 9.74017 20.1456C10.1075 20.2611 10.445 20.4559 10.7287 20.7164C11.0681 21.028 11.286 21.4368 11.3302 21.5204L11.3378 21.5347L12.4499 23.5104L12.5926 23.5305C13.0353 23.5929 13.4875 23.6251 13.9471 23.6251C14.4068 23.6251 14.8592 23.5929 15.302 23.5305ZM14.0002 16.8583C15.5788 16.8583 16.8586 15.5786 16.8586 14C16.8586 12.4213 15.5788 11.1416 14.0002 11.1416C12.4216 11.1416 11.1419 12.4213 11.1419 14C11.1419 15.5786 12.4216 16.8583 14.0002 16.8583ZM18.3752 14C18.3752 16.4162 16.4165 18.375 14.0002 18.375C11.584 18.375 9.62523 16.4162 9.62523 14C9.62523 11.5837 11.584 9.62496 14.0002 9.62496C16.4165 9.62496 18.3752 11.5837 18.3752 14Z"
            fill="#333333" />
    </g>
</svg>
