<svg width="24" height="24" viewBox="0 0 24 24" fill="none" xmlns="http://www.w3.org/2000/svg">
<path fill-rule="evenodd" clip-rule="evenodd" d="M10.6411 18.0892C10.402 17.9511 10.0962 18.0331 9.95809 18.2722L9.80779 18.5326L9.65748 18.2722C9.51941 18.0331 9.21362 17.9511 8.97447 18.0892C8.73532 18.2273 8.65339 18.5331 8.79146 18.7722L8.94176 19.0325L8.64112 19.0325C8.36498 19.0325 8.14112 19.2564 8.14112 19.5325C8.14112 19.8087 8.36498 20.0325 8.64112 20.0325L8.94177 20.0325L8.79142 20.293C8.65335 20.5321 8.73529 20.8379 8.97443 20.976C9.21358 21.114 9.51938 21.0321 9.65745 20.793L9.80779 20.5326L9.95812 20.7929C10.0962 21.0321 10.402 21.114 10.6411 20.976C10.8803 20.8379 10.9622 20.5321 10.8241 20.2929L10.6738 20.0325L10.9745 20.0325C11.2506 20.0325 11.4745 19.8087 11.4745 19.5325C11.4745 19.2564 11.2506 19.0325 10.9745 19.0325L10.6738 19.0325L10.8241 18.7722C10.9622 18.5331 10.8802 18.2273 10.6411 18.0892Z" fill="#57AEFF"/>
<path fill-rule="evenodd" clip-rule="evenodd" d="M14.9751 18.7552C14.7359 18.6171 14.4301 18.6991 14.292 18.9382L14.1417 19.1986L13.9914 18.9382C13.8534 18.6991 13.5476 18.6171 13.3084 18.7552C13.0693 18.8933 12.9873 19.1991 13.1254 19.4382L13.2757 19.6985L12.9751 19.6985C12.699 19.6985 12.4751 19.9224 12.4751 20.1985C12.4751 20.4747 12.699 20.6985 12.9751 20.6985L13.2757 20.6985L13.1254 20.959C12.9873 21.1981 13.0692 21.5039 13.3084 21.642C13.5475 21.78 13.8533 21.6981 13.9914 21.459L14.1417 21.1986L14.2921 21.4589C14.4302 21.6981 14.7359 21.78 14.9751 21.642C15.2142 21.5039 15.2962 21.1981 15.1581 20.9589L15.0078 20.6985L15.3084 20.6985C15.5846 20.6985 15.8084 20.4747 15.8084 20.1985C15.8084 19.9224 15.5846 19.6985 15.3084 19.6985L15.0078 19.6985L15.1581 19.4382C15.2961 19.1991 15.2142 18.8933 14.9751 18.7552Z" fill="#57AEFF"/>
<g filter="url(#filter0_b_5831_37172)">
<path d="M16.0003 10.0007C16.0003 11.5988 16.0003 16.6673 16.0003 16.6673C16.0003 16.6673 11.4174 16.6673 9.33366 16.6673C5.65176 16.6673 2.66699 13.6825 2.66699 10.0007C2.66699 6.31875 5.65176 3.33398 9.33366 3.33398C13.0156 3.33398 16.0003 6.31875 16.0003 10.0007Z" fill="#57AEFF"/>
</g>
<g filter="url(#filter1_b_5831_37172)">
<ellipse cx="16.1667" cy="11.5007" rx="5.16667" ry="5.16667" fill="#57AEFF"/>
</g>
<defs>
<filter id="filter0_b_5831_37172" x="-2.33301" y="-1.66602" width="23.333" height="23.334" filterUnits="userSpaceOnUse" color-interpolation-filters="sRGB">
<feFlood flood-opacity="0" result="BackgroundImageFix"/>
<feGaussianBlur in="BackgroundImageFix" stdDeviation="2.5"/>
<feComposite in2="SourceAlpha" operator="in" result="effect1_backgroundBlur_5831_37172"/>
<feBlend mode="normal" in="SourceGraphic" in2="effect1_backgroundBlur_5831_37172" result="shape"/>
</filter>
<filter id="filter1_b_5831_37172" x="7.25" y="2.58398" width="17.833" height="17.834" filterUnits="userSpaceOnUse" color-interpolation-filters="sRGB">
<feFlood flood-opacity="0" result="BackgroundImageFix"/>
<feGaussianBlur in="BackgroundImageFix" stdDeviation="1.875"/>
<feComposite in2="SourceAlpha" operator="in" result="effect1_backgroundBlur_5831_37172"/>
<feBlend mode="normal" in="SourceGraphic" in2="effect1_backgroundBlur_5831_37172" result="shape"/>
</filter>
</defs>
</svg>
