<svg width="21" height="20" viewBox="0 0 21 20" fill="none" xmlns="http://www.w3.org/2000/svg">
<path d="M10.7519 8.13208C11.5804 8.13208 12.252 7.46051 12.252 6.63208C12.252 5.80365 11.5804 5.13208 10.7519 5.13208C9.92352 5.13208 9.25195 5.80365 9.25195 6.63208C9.25195 7.46051 9.92352 8.13208 10.7519 8.13208Z" fill="black"/>
<path d="M10.252 9C9.97581 9 9.75195 9.22386 9.75195 9.5V14.5C9.75195 14.7761 9.97581 15 10.252 15H11.252C11.5281 15 11.752 14.7761 11.752 14.5V9.5C11.752 9.22386 11.5281 9 11.252 9H10.252Z" fill="black"/>
<path fill-rule="evenodd" clip-rule="evenodd" d="M10.7519 0C5.25195 0 0.751953 4.5 0.751953 10C0.751953 15.5 5.25195 20 10.7519 20C16.2519 20 20.7519 15.5 20.7519 10C20.7519 4.4 16.2519 0 10.7519 0ZM10.7519 2C15.1519 2 18.7519 5.6 18.7519 10C18.7519 14.4 15.1519 18 10.7519 18C6.35195 18 2.75195 14.4 2.75195 10C2.75195 5.6 6.35195 2 10.7519 2Z" fill="black"/>
</svg>
