<svg width="40" height="40" viewBox="0 0 40 40" fill="none" xmlns="http://www.w3.org/2000/svg">
<g clip-path="url(#clip0_7314_5918)">
<mask id="mask0_7314_5918" style="mask-type:luminance" maskUnits="userSpaceOnUse" x="-1" y="-1" width="41" height="41">
<rect x="-0.00585938" y="-0.00585938" width="40" height="40" fill="white"/>
</mask>
<g mask="url(#mask0_7314_5918)">
<path d="M-0.00585938 -0.00585938H39.9941V39.9941H-0.00585938V-0.00585938Z" fill="url(#paint0_linear_7314_5918)"/>
<path d="M-0.00585938 -0.00585938H39.9941V39.9941H-0.00585938V-0.00585938Z" fill="#34E059" fill-opacity="0.5"/>
<g filter="url(#filter0_dii_7314_5918)">
<path d="M27.3083 18.5068L32.1441 30.5964C32.1809 30.6882 32.1946 30.7877 32.184 30.886C32.1734 30.9843 32.1389 31.0786 32.0834 31.1605C32.0279 31.2423 31.9531 31.3093 31.8657 31.3556C31.7783 31.4018 31.6809 31.4259 31.5819 31.4258H30.2787C30.158 31.4257 30.04 31.3896 29.94 31.3219C29.8401 31.2543 29.7626 31.1582 29.7177 31.0462L28.4181 27.7989H23.4734L22.1762 31.0462C22.1312 31.1584 22.0536 31.2546 21.9534 31.3222C21.8532 31.3899 21.735 31.426 21.614 31.4258H20.3132C20.2144 31.4257 20.1171 31.4015 20.0298 31.3552C19.9426 31.3088 19.868 31.2418 19.8126 31.16C19.7573 31.0781 19.7228 30.9839 19.7123 30.8857C19.7018 30.7875 19.7155 30.6881 19.7522 30.5964L24.5881 18.5068C24.633 18.3947 24.7104 18.2987 24.8104 18.231C24.9104 18.1634 25.0283 18.1272 25.149 18.1272H26.7473C26.8682 18.1269 26.9864 18.163 27.0866 18.2307C27.1869 18.2984 27.2645 18.3945 27.3095 18.5068H27.3083ZM25.947 21.615L24.4394 25.3809H27.4521L25.947 21.615ZM15.0663 9.05993V10.8734H19.2977C19.458 10.8734 19.6117 10.9371 19.7251 11.0504C19.8385 11.1638 19.9021 11.3175 19.9021 11.4779V18.7316C19.9021 18.892 19.8385 19.0457 19.7251 19.1591C19.6117 19.2724 19.458 19.3361 19.2977 19.3361H15.0663V22.3585C15.0663 22.5189 15.0026 22.6726 14.8892 22.786C14.7759 22.8993 14.6221 22.963 14.4618 22.963H13.2528C13.0925 22.963 12.9388 22.8993 12.8254 22.786C12.712 22.6726 12.6484 22.5189 12.6484 22.3585V19.3361H8.41698C8.3376 19.3361 8.259 19.3205 8.18566 19.2901C8.11232 19.2597 8.04568 19.2152 7.98955 19.1591C7.93342 19.1029 7.88889 19.0363 7.85851 18.963C7.82814 18.8896 7.8125 18.811 7.8125 18.7316V11.4779C7.8125 11.3985 7.82814 11.3199 7.85851 11.2465C7.88889 11.1732 7.93342 11.1066 7.98955 11.0504C8.04568 10.9943 8.11232 10.9498 8.18566 10.9194C8.259 10.889 8.3376 10.8734 8.41698 10.8734H12.6484V9.05993C12.6484 8.98054 12.664 8.90194 12.6944 8.8286C12.7247 8.75526 12.7693 8.68862 12.8254 8.63249C12.8815 8.57636 12.9482 8.53184 13.0215 8.50146C13.0949 8.47108 13.1735 8.45544 13.2528 8.45544H14.4618C14.5412 8.45544 14.6198 8.47108 14.6931 8.50146C14.7665 8.53184 14.8331 8.57636 14.8892 8.63249C14.9454 8.68862 14.9899 8.75526 15.0203 8.8286C15.0507 8.90194 15.0663 8.98054 15.0663 9.05993ZM12.6484 13.2913H10.2304V16.9182H12.6484V13.2913ZM17.4842 13.2913H15.0663V16.9182H17.4842V13.2913Z" fill="#EFFFF4"/>
<path fill-rule="evenodd" clip-rule="evenodd" d="M10.6602 23.6035V28.1276C10.6602 28.4928 10.9563 28.789 11.3216 28.789H16.7607V31.4345H11.3216C9.49521 31.4345 8.01465 29.9539 8.01465 28.1276V23.6035H10.6602Z" fill="#EFFFF4"/>
<path fill-rule="evenodd" clip-rule="evenodd" d="M28.4514 16.4892V11.9651C28.4514 11.5999 28.1553 11.3038 27.79 11.3038H22.3509V8.65822H27.79C29.6164 8.65822 31.0969 10.1388 31.0969 11.9651V16.4892H28.4514Z" fill="#EFFFF4"/>
</g>
</g>
</g>
<defs>
<filter id="filter0_dii_7314_5918" x="-1.05114" y="2.91567" width="42.1023" height="40.7063" filterUnits="userSpaceOnUse" color-interpolation-filters="sRGB">
<feFlood flood-opacity="0" result="BackgroundImageFix"/>
<feColorMatrix in="SourceAlpha" type="matrix" values="0 0 0 0 0 0 0 0 0 0 0 0 0 0 0 0 0 0 127 0" result="hardAlpha"/>
<feOffset dy="3.32386"/>
<feGaussianBlur stdDeviation="4.43182"/>
<feComposite in2="hardAlpha" operator="out"/>
<feColorMatrix type="matrix" values="0 0 0 0 0 0 0 0 0 0.525 0 0 0 0 0.148282 0 0 0 0.2 0"/>
<feBlend mode="normal" in2="BackgroundImageFix" result="effect1_dropShadow_7314_5918"/>
<feBlend mode="normal" in="SourceGraphic" in2="effect1_dropShadow_7314_5918" result="shape"/>
<feColorMatrix in="SourceAlpha" type="matrix" values="0 0 0 0 0 0 0 0 0 0 0 0 0 0 0 0 0 0 127 0" result="hardAlpha"/>
<feOffset dy="-0.553977"/>
<feComposite in2="hardAlpha" operator="arithmetic" k2="-1" k3="1"/>
<feColorMatrix type="matrix" values="0 0 0 0 0.149306 0 0 0 0 0.716667 0 0 0 0 0.295198 0 0 0 0.36 0"/>
<feBlend mode="normal" in2="shape" result="effect2_innerShadow_7314_5918"/>
<feColorMatrix in="SourceAlpha" type="matrix" values="0 0 0 0 0 0 0 0 0 0 0 0 0 0 0 0 0 0 127 0" result="hardAlpha"/>
<feOffset dy="-0.15"/>
<feComposite in2="hardAlpha" operator="arithmetic" k2="-1" k3="1"/>
<feColorMatrix type="matrix" values="0 0 0 0 1 0 0 0 0 1 0 0 0 0 1 0 0 0 0.1 0"/>
<feBlend mode="normal" in2="effect2_innerShadow_7314_5918" result="effect3_innerShadow_7314_5918"/>
</filter>
<linearGradient id="paint0_linear_7314_5918" x1="17.5" y1="2.36185e-08" x2="17" y2="40" gradientUnits="userSpaceOnUse">
<stop stop-color="#39D15A"/>
<stop offset="1" stop-color="#23954B"/>
</linearGradient>
<clipPath id="clip0_7314_5918">
<rect width="40" height="40" rx="8" fill="white"/>
</clipPath>
</defs>
</svg>
