<svg width="28" height="28" viewBox="0 0 28 28" fill="none" xmlns="http://www.w3.org/2000/svg">
<path fill-rule="evenodd" clip-rule="evenodd" d="M18.9584 13.9998C18.9584 11.2721 16.7278 9.0415 14 9.0415C11.2723 9.0415 9.04169 11.2721 9.04169 13.9998C9.04169 16.7276 11.2723 18.9582 14 18.9582C16.7278 18.9582 18.9584 16.7276 18.9584 13.9998ZM7.29169 13.9998C7.29169 10.3109 10.3111 7.2915 14 7.2915C17.6889 7.2915 20.7084 10.3109 20.7084 13.9998C20.7084 17.6888 17.6889 20.7082 14 20.7082C10.3111 20.7082 7.29169 17.6888 7.29169 13.9998Z" fill="#333333"/>
<path fill-rule="evenodd" clip-rule="evenodd" d="M13.3333 2H14.6667C14.8508 2 15 2.17388 15 2.38838V5.61162C15 5.82612 14.8508 6 14.6667 6H13.3333C13.1492 6 13 5.82612 13 5.61162V2.38838C13 2.17389 13.1492 2 13.3333 2Z" fill="#333333"/>
<path fill-rule="evenodd" clip-rule="evenodd" d="M13.3333 22H14.6667C14.8508 22 15 22.1739 15 22.3884V25.6116C15 25.8261 14.8508 26 14.6667 26H13.3333C13.1492 26 13 25.8261 13 25.6116V22.3884C13 22.1739 13.1492 22 13.3333 22Z" fill="#333333"/>
<path fill-rule="evenodd" clip-rule="evenodd" d="M5.0433 5.98622L5.98611 5.04341C6.11629 4.91324 6.34477 4.93067 6.49644 5.08234L8.77561 7.36151C8.92729 7.51318 8.94471 7.74166 8.81454 7.87184L7.87173 8.81465C7.74156 8.94482 7.51307 8.9274 7.3614 8.77572L5.08223 6.49655C4.93056 6.34488 4.91313 6.1164 5.0433 5.98622Z" fill="#333333"/>
<path fill-rule="evenodd" clip-rule="evenodd" d="M19.1854 20.1283L20.1282 19.1855C20.2584 19.0553 20.4869 19.0728 20.6386 19.2244L22.9177 21.5036C23.0694 21.6553 23.0869 21.8838 22.9567 22.0139L22.0139 22.9567C21.8837 23.0869 21.6552 23.0695 21.5035 22.9178L19.2244 20.6386C19.0727 20.487 19.0553 20.2585 19.1854 20.1283Z" fill="#333333"/>
<path fill-rule="evenodd" clip-rule="evenodd" d="M2 14.6667V13.3333C2 13.1492 2.17388 13 2.38838 13H5.61162C5.82612 13 6 13.1492 6 13.3333V14.6667C6 14.8508 5.82612 15 5.61162 15H2.38838C2.17389 15 2 14.8508 2 14.6667Z" fill="#333333"/>
<path fill-rule="evenodd" clip-rule="evenodd" d="M22 14.6667V13.3333C22 13.1492 22.1739 13 22.3884 13H25.6116C25.8261 13 26 13.1492 26 13.3333V14.6667C26 14.8508 25.8261 15 25.6116 15H22.3884C22.1739 15 22 14.8508 22 14.6667Z" fill="#333333"/>
<path fill-rule="evenodd" clip-rule="evenodd" d="M5.23601 22.2241L4.37896 21.2028C4.26062 21.0617 4.2979 20.8356 4.46222 20.6978L6.93136 18.6259C7.09567 18.488 7.3248 18.4906 7.44314 18.6316L8.30019 19.653C8.41852 19.794 8.38125 20.0201 8.21693 20.158L5.74779 22.2298C5.58348 22.3677 5.35434 22.3652 5.23601 22.2241Z" fill="#333333"/>
<path fill-rule="evenodd" clip-rule="evenodd" d="M20.5569 9.36843L19.6998 8.34704C19.5815 8.20601 19.6188 7.97992 19.7831 7.84204L22.2522 5.77019C22.4165 5.63231 22.6457 5.63486 22.764 5.77589L23.6211 6.79728C23.7394 6.93831 23.7021 7.1644 23.5378 7.30228L21.0687 9.37413C20.9044 9.51201 20.6752 9.50946 20.5569 9.36843Z" fill="#333333"/>
</svg>
