<svg width="44" height="44" viewBox="0 0 44 44" fill="none" xmlns="http://www.w3.org/2000/svg">
    <path fill-rule="evenodd" clip-rule="evenodd"
        d="M12.8946 8.19752C18.7419 4.41387 26.978 5.00282 32.5754 9.28859L29.574 11.9555C25.4747 9.07648 19.719 8.67854 15.4708 11.1873C15.0912 11.4114 14.6033 11.3701 14.2916 11.0584L12.7764 9.54324C12.3838 9.15056 12.4284 8.49921 12.8946 8.19752ZM13.5967 31.3313C13.4352 31.1854 13.2766 31.0347 13.1209 30.879C8.92039 26.6785 8.28636 20.2947 11.1847 15.4693C11.4117 15.0915 11.3702 14.6033 11.0585 14.2916L9.5433 12.7764C9.15063 12.3837 8.49926 12.4285 8.19386 12.8923C3.98373 19.2863 4.71031 27.9887 10.3607 33.6392C10.5162 33.7946 10.6739 33.9463 10.8338 34.0942L13.5967 31.3313ZM18.5968 34.1094L15.5469 37.1593C21.5687 39.7441 28.7982 38.5922 33.6952 33.6951C38.5922 28.7981 39.7441 21.5686 37.1594 15.5468L34.1095 18.5967C35.326 22.854 34.262 27.608 30.935 30.935C27.608 34.262 22.8541 35.326 18.5968 34.1094Z"
        fill="#000000" />
    <rect x="2.94727" y="36.8179" width="47.6667" height="3.66667" rx="0.916667"
        transform="rotate(-45 2.94727 36.8179)" fill="#000000" />
</svg>
