<svg width="40" height="40" viewBox="0 0 40 40" fill="none" xmlns="http://www.w3.org/2000/svg">
<g clip-path="url(#clip0_7314_7706)">
<rect width="40" height="40" fill="white"/>
<mask id="mask0_7314_7706" style="mask-type:luminance" maskUnits="userSpaceOnUse" x="0" y="0" width="40" height="40">
<rect width="40" height="40" fill="white"/>
</mask>
<g mask="url(#mask0_7314_7706)">
<path d="M-9.61133 2C-9.61133 -4.62742 -4.23874 -10 2.38867 -10H38.3887C45.0161 -10 50.3887 -4.62742 50.3887 2V38C50.3887 44.6274 45.0161 50 38.3887 50H2.38867C-4.23875 50 -9.61133 44.6274 -9.61133 38V2Z" fill="url(#paint0_linear_7314_7706)"/>
<path fill-rule="evenodd" clip-rule="evenodd" d="M24.0449 13.7844C24.0449 13.6137 24.0449 13.5284 24.0781 13.4632C24.1073 13.4059 24.154 13.3593 24.2113 13.3301C24.2765 13.2969 24.3618 13.2969 24.5324 13.2969H28.4324C28.6031 13.2969 28.6884 13.2969 28.7536 13.3301C28.8109 13.3593 28.8575 13.4059 28.8867 13.4632C28.9199 13.5284 28.9199 13.6137 28.9199 13.7844V14.6375C28.9199 14.8081 28.9199 14.8935 28.8867 14.9586C28.8575 15.016 28.8109 15.0626 28.7536 15.0918C28.6884 15.125 28.6031 15.125 28.4324 15.125H24.5324C24.3618 15.125 24.2765 15.125 24.2113 15.0918C24.154 15.0626 24.1073 15.016 24.0781 14.9586C24.0449 14.8935 24.0449 14.8081 24.0449 14.6375V13.7844ZM22.2168 17.4406C22.2168 17.27 22.2168 17.1847 22.25 17.1195C22.2792 17.0622 22.3258 17.0155 22.3832 16.9863C22.4483 16.9531 22.5337 16.9531 22.7043 16.9531H28.4324C28.6031 16.9531 28.6884 16.9531 28.7536 16.9863C28.8109 17.0155 28.8575 17.0622 28.8867 17.1195C28.9199 17.1847 28.9199 17.27 28.9199 17.4406V18.2938C28.9199 18.4644 28.9199 18.5497 28.8867 18.6149C28.8575 18.6722 28.8109 18.7188 28.7536 18.748C28.6884 18.7813 28.6031 18.7813 28.4324 18.7813H22.7043C22.5337 18.7813 22.4483 18.7813 22.3832 18.748C22.3258 18.7188 22.2792 18.6722 22.25 18.6149C22.2168 18.5497 22.2168 18.4644 22.2168 18.2938V17.4406ZM28.9199 21.0969C28.9199 20.9262 28.9199 20.8409 28.8867 20.7757C28.8575 20.7184 28.8109 20.6718 28.7536 20.6426C28.6884 20.6094 28.6031 20.6094 28.4324 20.6094H22.7043C22.5337 20.6094 22.4483 20.6094 22.3832 20.6426C22.3258 20.6718 22.2792 20.7184 22.25 20.7757C22.2168 20.8409 22.2168 20.9262 22.2168 21.0969V21.95C22.2168 22.1206 22.2168 22.206 22.25 22.2711C22.2792 22.3285 22.3258 22.3751 22.3832 22.4043C22.4483 22.4375 22.5337 22.4375 22.7043 22.4375H28.4324C28.6031 22.4375 28.6884 22.4375 28.7536 22.4043C28.8109 22.3751 28.8575 22.3285 28.8867 22.2711C28.9199 22.206 28.9199 22.1206 28.9199 21.95V21.0969ZM11.8574 24.7531C11.8574 24.5825 11.8574 24.4972 11.8906 24.432C11.9198 24.3747 11.9665 24.328 12.0238 24.2988C12.089 24.2656 12.1743 24.2656 12.3449 24.2656H28.4324C28.6031 24.2656 28.6884 24.2656 28.7536 24.2988C28.8109 24.328 28.8575 24.3747 28.8867 24.432C28.9199 24.4972 28.9199 24.5825 28.9199 24.7531V25.6063C28.9199 25.7769 28.9199 25.8622 28.8867 25.9274C28.8575 25.9847 28.8109 26.0313 28.7536 26.0605C28.6884 26.0938 28.6031 26.0938 28.4324 26.0938H12.3449C12.1743 26.0938 12.089 26.0938 12.0238 26.0605C11.9665 26.0313 11.9198 25.9847 11.8906 25.9274C11.8574 25.8622 11.8574 25.7769 11.8574 25.6063V24.7531ZM20.084 13.2969L17.3418 13.2969H14.9043C14.9043 13.2969 14.9043 13.2969 14.9043 13.2969C14.9043 13.2969 14.9043 13.2969 14.9043 13.2969H12.1621C11.9938 13.2969 11.8574 13.4333 11.8574 13.6016V15.4297C11.8574 15.598 11.9938 15.7344 12.1621 15.7344H14.5996C14.7679 15.7344 14.9043 15.8708 14.9043 16.0391L14.9043 21.5234C14.9043 21.6917 15.0407 21.8281 15.209 21.8281H17.0371C17.2054 21.8281 17.3418 21.6917 17.3418 21.5234L17.3418 16.0391C17.3418 15.8708 17.4782 15.7344 17.6465 15.7344H20.084C20.2523 15.7344 20.3887 15.598 20.3887 15.4297V13.6016C20.3887 13.4333 20.2523 13.2969 20.084 13.2969Z" fill="#20B9C9"/>
<g filter="url(#filter0_dii_7314_7706)">
<path fill-rule="evenodd" clip-rule="evenodd" d="M7.96666 10.9971C7.5918 11.7473 7.5918 12.7259 7.5918 14.6832V25.3168C7.5918 27.2741 7.5918 28.2527 7.96666 29.0029C8.31073 29.6915 8.86902 30.2498 9.55762 30.5939C10.3078 30.9688 11.2865 30.9688 13.2437 30.9688H27.5336C29.4909 30.9688 30.4695 30.9688 31.2197 30.5939C31.9083 30.2498 32.4666 29.6915 32.8107 29.0029C33.1855 28.2527 33.1855 27.2741 33.1855 25.3168V14.6832C33.1855 12.7259 33.1855 11.7473 32.8107 10.9971C32.4666 10.3085 31.9083 9.75018 31.2197 9.40611C30.4695 9.03125 29.4909 9.03125 27.5336 9.03125H13.2438C11.2865 9.03125 10.3078 9.03125 9.55762 9.40611C8.86902 9.75018 8.31073 10.3085 7.96666 10.9971ZM24.0781 13.4632C24.0449 13.5284 24.0449 13.6137 24.0449 13.7844V14.6375C24.0449 14.8081 24.0449 14.8935 24.0781 14.9586C24.1074 15.016 24.154 15.0626 24.2113 15.0918C24.2765 15.125 24.3618 15.125 24.5324 15.125H28.4324C28.6031 15.125 28.6884 15.125 28.7536 15.0918C28.8109 15.0626 28.8575 15.016 28.8867 14.9586C28.9199 14.8935 28.9199 14.8081 28.9199 14.6375V13.7844C28.9199 13.6137 28.9199 13.5284 28.8867 13.4632C28.8575 13.4059 28.8109 13.3593 28.7536 13.3301C28.6884 13.2969 28.6031 13.2969 28.4324 13.2969H24.5324C24.3618 13.2969 24.2765 13.2969 24.2113 13.3301C24.154 13.3593 24.1074 13.4059 24.0781 13.4632ZM22.25 17.1195C22.2168 17.1847 22.2168 17.27 22.2168 17.4406V18.2937C22.2168 18.4644 22.2168 18.5497 22.25 18.6149C22.2792 18.6722 22.3258 18.7188 22.3832 18.748C22.4483 18.7812 22.5337 18.7812 22.7043 18.7812H28.4324C28.6031 18.7812 28.6884 18.7812 28.7536 18.748C28.8109 18.7188 28.8575 18.6722 28.8867 18.6149C28.9199 18.5497 28.9199 18.4644 28.9199 18.2937V17.4406C28.9199 17.27 28.9199 17.1847 28.8867 17.1195C28.8575 17.0622 28.8109 17.0155 28.7536 16.9863C28.6884 16.9531 28.6031 16.9531 28.4324 16.9531H22.7043C22.5337 16.9531 22.4483 16.9531 22.3832 16.9863C22.3258 17.0155 22.2792 17.0622 22.25 17.1195ZM28.8867 20.7757C28.9199 20.8409 28.9199 20.9262 28.9199 21.0969V21.95C28.9199 22.1206 28.9199 22.206 28.8867 22.2711C28.8575 22.3285 28.8109 22.3751 28.7536 22.4043C28.6884 22.4375 28.6031 22.4375 28.4324 22.4375H22.7043C22.5337 22.4375 22.4483 22.4375 22.3832 22.4043C22.3258 22.3751 22.2792 22.3285 22.25 22.2711C22.2168 22.206 22.2168 22.1206 22.2168 21.95V21.0969C22.2168 20.9262 22.2168 20.8409 22.25 20.7757C22.2792 20.7184 22.3258 20.6718 22.3832 20.6426C22.4483 20.6094 22.5337 20.6094 22.7043 20.6094H28.4324C28.6031 20.6094 28.6884 20.6094 28.7536 20.6426C28.8109 20.6718 28.8575 20.7184 28.8867 20.7757ZM11.8906 24.432C11.8574 24.4972 11.8574 24.5825 11.8574 24.7531V25.6063C11.8574 25.7769 11.8574 25.8622 11.8906 25.9274C11.9199 25.9847 11.9665 26.0313 12.0238 26.0605C12.089 26.0938 12.1743 26.0938 12.3449 26.0938H28.4324C28.6031 26.0938 28.6884 26.0938 28.7536 26.0605C28.8109 26.0313 28.8575 25.9847 28.8867 25.9274C28.9199 25.8622 28.9199 25.7769 28.9199 25.6063V24.7531C28.9199 24.5825 28.9199 24.4972 28.8867 24.432C28.8575 24.3747 28.8109 24.328 28.7536 24.2988C28.6884 24.2656 28.6031 24.2656 28.4324 24.2656H12.3449C12.1743 24.2656 12.089 24.2656 12.0238 24.2988C11.9665 24.328 11.9199 24.3747 11.8906 24.432ZM17.3418 13.2969L20.084 13.2969C20.2523 13.2969 20.3887 13.4333 20.3887 13.6016V15.4297C20.3887 15.598 20.2523 15.7344 20.084 15.7344H17.6465C17.4782 15.7344 17.3418 15.8708 17.3418 16.0391L17.3418 21.5234C17.3418 21.6917 17.2054 21.8281 17.0371 21.8281H15.209C15.0407 21.8281 14.9043 21.6917 14.9043 21.5234V16.0391C14.9043 15.8708 14.7679 15.7344 14.5996 15.7344H12.1621C11.9938 15.7344 11.8574 15.598 11.8574 15.4297V13.6016C11.8574 13.4333 11.9938 13.2969 12.1621 13.2969H14.9043L14.9043 13.2969H17.3418Z" fill="#F5FFFE"/>
</g>
</g>
</g>
<defs>
<filter id="filter0_dii_7314_7706" x="-2.1582" y="2.9375" width="45.0938" height="41.4375" filterUnits="userSpaceOnUse" color-interpolation-filters="sRGB">
<feFlood flood-opacity="0" result="BackgroundImageFix"/>
<feColorMatrix in="SourceAlpha" type="matrix" values="0 0 0 0 0 0 0 0 0 0 0 0 0 0 0 0 0 0 127 0" result="hardAlpha"/>
<feOffset dy="3.65625"/>
<feGaussianBlur stdDeviation="4.875"/>
<feComposite in2="hardAlpha" operator="out"/>
<feColorMatrix type="matrix" values="0 0 0 0 0 0 0 0 0 0.5125 0 0 0 0 0.625 0 0 0 0.3 0"/>
<feBlend mode="normal" in2="BackgroundImageFix" result="effect1_dropShadow_7314_7706"/>
<feBlend mode="normal" in="SourceGraphic" in2="effect1_dropShadow_7314_7706" result="shape"/>
<feColorMatrix in="SourceAlpha" type="matrix" values="0 0 0 0 0 0 0 0 0 0 0 0 0 0 0 0 0 0 127 0" result="hardAlpha"/>
<feOffset dy="-0.609375"/>
<feComposite in2="hardAlpha" operator="arithmetic" k2="-1" k3="1"/>
<feColorMatrix type="matrix" values="0 0 0 0 0.109804 0 0 0 0 0.698039 0 0 0 0 0.756863 0 0 0 0.37 0"/>
<feBlend mode="normal" in2="shape" result="effect2_innerShadow_7314_7706"/>
<feColorMatrix in="SourceAlpha" type="matrix" values="0 0 0 0 0 0 0 0 0 0 0 0 0 0 0 0 0 0 127 0" result="hardAlpha"/>
<feOffset dy="-0.15"/>
<feComposite in2="hardAlpha" operator="arithmetic" k2="-1" k3="1"/>
<feColorMatrix type="matrix" values="0 0 0 0 1 0 0 0 0 1 0 0 0 0 1 0 0 0 0.05 0"/>
<feBlend mode="normal" in2="effect2_innerShadow_7314_7706" result="effect3_innerShadow_7314_7706"/>
</filter>
<linearGradient id="paint0_linear_7314_7706" x1="20" y1="-3" x2="24.5" y2="41.5" gradientUnits="userSpaceOnUse">
<stop stop-color="#19C4AF"/>
<stop offset="1" stop-color="#00A5AE"/>
</linearGradient>
<clipPath id="clip0_7314_7706">
<rect width="40" height="40" rx="8" fill="white"/>
</clipPath>
</defs>
</svg>
