<svg width="18" height="18" viewBox="0 0 18 18" fill="none" xmlns="http://www.w3.org/2000/svg">
<path fill-rule="evenodd" clip-rule="evenodd" d="M0 9C0 13.9705 4.02952 18 9 18C13.9707 18 18 13.9705 18 9C18 4.02931 13.9707 0 9 0C4.02952 0 0 4.02931 0 9ZM8.78179 11.8884L7.89443 12.7761C7.73823 12.9323 7.48492 12.9324 7.32869 12.7761L4.33519 9.78263C4.17898 9.62642 4.17898 9.37315 4.33519 9.21694L4.93993 8.6122C5.09613 8.456 5.34939 8.45599 5.5056 8.61219L7.61159 10.718L12.551 5.77836C12.7072 5.62215 12.9605 5.62214 13.1167 5.77836L13.7214 6.38308C13.8776 6.53929 13.8776 6.79255 13.7214 6.94876L8.78179 11.8884Z" fill="#1F7FFB"/>
</svg>
