<svg width="24" height="24" viewBox="0 0 24 24" fill="none" xmlns="http://www.w3.org/2000/svg">
<path fill-rule="evenodd" clip-rule="evenodd" d="M3.90699 5.73211C3.79599 5.67844 3.66699 5.75611 3.66699 5.87944V7.91944C3.66699 8.04644 3.73899 8.16511 3.85299 8.22111C6.67904 9.60524 9.50517 9.05626 12.3313 8.58585L12.3408 6.06908C9.52961 6.53684 6.71835 7.08455 3.90699 5.73211Z" fill="#57AEFF"/>
<path fill-rule="evenodd" clip-rule="evenodd" d="M3.90699 15.0661C3.79599 15.0124 3.66699 15.0901 3.66699 15.2134V17.2534C3.66699 17.3804 3.73899 17.4991 3.85299 17.5551C6.67904 18.9392 9.50517 18.3902 12.3313 17.9198L12.3408 15.4031C9.52961 15.8708 6.71835 16.4185 3.90699 15.0661Z" fill="#57AEFF"/>
<path fill-rule="evenodd" clip-rule="evenodd" d="M8.00337 13.7189C9.20774 13.7189 11.1264 13.4047 12.3308 13.2043L12.3403 10.6875C11.1079 10.8926 9.20774 11.2081 7.92871 11.2081L8.00337 13.7189Z" fill="#57AEFF"/>
<path fill-rule="evenodd" clip-rule="evenodd" d="M13.684 8.32943C15.7085 8.07205 18.0662 8.0606 20.0906 9.03453C20.2016 9.08786 20.331 9.01053 20.331 8.88686V6.84686C20.331 6.71986 20.2586 6.60119 20.1446 6.54553C18.0965 5.54241 15.7151 5.55462 13.667 5.81641L13.684 8.32943Z" fill="#57AEFF"/>
<path fill-rule="evenodd" clip-rule="evenodd" d="M17.0252 12.8999C18.0746 12.9955 19.1208 13.2359 20.0905 13.7024C20.2015 13.7558 20.3308 13.6784 20.3308 13.5548V11.5148C20.3308 11.3878 20.2585 11.2691 20.1445 11.2134C19.1504 10.7266 18.0778 10.4789 17.0029 10.3828L17.0252 12.8999Z" fill="#57AEFF"/>
<path fill-rule="evenodd" clip-rule="evenodd" d="M13.684 17.6634C15.7085 17.406 18.0662 17.3946 20.0906 18.3685C20.2016 18.4218 20.331 18.3445 20.331 18.2208V16.1808C20.331 16.0538 20.2586 15.9352 20.1446 15.8795C18.0965 14.8764 15.7151 14.8886 13.667 15.1504L13.684 17.6634Z" fill="#57AEFF"/>
<circle cx="15.0003" cy="11.6673" r="1.33333" fill="#57AEFF"/>
<ellipse cx="5.00033" cy="12.3333" rx="1.33333" ry="1.33333" fill="#57AEFF"/>
</svg>
