<svg width="28" height="28" viewBox="0 0 28 28" fill="none" xmlns="http://www.w3.org/2000/svg">
<path fill-rule="evenodd" clip-rule="evenodd" d="M8.78053 9.91675H5.25V18.0834H8.78053L12.25 20.859V7.14117L8.78053 9.91675ZM12.25 4.90008C12.4833 4.78341 12.7167 4.66675 12.95 4.66675C13.4167 4.66675 14 5.13341 14 5.71675V22.2834C14 22.8667 13.4167 23.3334 12.95 23.3334C12.7167 23.3334 12.4833 23.2167 12.25 23.1001L8.16667 19.8334H4.66667C3.96667 19.8334 3.5 19.3667 3.5 18.6667V9.33341C3.5 8.63341 3.96667 8.16675 4.66667 8.16675H8.16667L12.25 4.90008Z" fill="#333333"/>
<path fill-rule="evenodd" clip-rule="evenodd" d="M20.5 15.091L23.2929 17.8838C23.3905 17.9815 23.5488 17.9815 23.6465 17.8838L24.3536 17.1767C24.4512 17.0791 24.4512 16.9208 24.3536 16.8232L21.5607 14.0303L24.3536 11.2374C24.4512 11.1398 24.4512 10.9815 24.3536 10.8838L23.6465 10.1767C23.5488 10.0791 23.3905 10.0791 23.2929 10.1767L20.5 12.9696L17.7071 10.1767C17.6095 10.0791 17.4512 10.0791 17.3536 10.1767L16.6465 10.8838C16.5488 10.9815 16.5488 11.1398 16.6465 11.2374L19.4394 14.0303L16.6465 16.8232C16.5488 16.9208 16.5488 17.0791 16.6465 17.1767L17.3536 17.8838C17.4512 17.9815 17.6095 17.9815 17.7071 17.8838L20.5 15.091Z" fill="#333333"/>
</svg>
