<svg width="41" height="41" viewBox="0 0 41 41" fill="none" xmlns="http://www.w3.org/2000/svg">
<rect x="0.730103" y="0.5" width="40" height="40" rx="8" fill="#29D356"/>
<rect x="1.2301" y="1" width="39" height="39" rx="7.5" stroke="black" stroke-opacity="0.05"/>
<path fill-rule="evenodd" clip-rule="evenodd" d="M26.1737 10.0866C26.1737 11.5151 25.0157 12.6731 23.5873 12.6731C22.1588 12.6731 21.0008 11.5151 21.0008 10.0866C21.0008 8.65805 22.1588 7.5 23.5873 7.5C25.0157 7.5 26.1737 8.65805 26.1737 10.0866ZM15.7678 16.072H18.7518C18.6426 16.2603 18.5591 16.4677 18.5069 16.6906L17.6681 20.2736C17.4039 21.4021 18.0371 22.5311 19.1031 22.9119L23.5258 25.9817L20.6536 28.8541C20.2404 29.2672 20.2404 29.9371 20.6536 30.3503C21.0667 30.7635 21.7366 30.7635 22.1498 30.3503L25.7994 26.7005C25.9382 26.6165 26.062 26.5026 26.1605 26.3607C26.5355 25.8204 26.4015 25.0783 25.8612 24.7033L21.827 21.9031C21.9312 21.7196 22.0112 21.5182 22.0617 21.3023L22.844 17.961L24.9469 20.279C25.0794 20.4251 25.2435 20.5256 25.4194 20.5795C25.7211 20.7124 26.0804 20.7027 26.3858 20.5219L29.8869 18.4486C30.3897 18.1509 30.5559 17.5019 30.2582 16.9992C29.9605 16.4964 29.3116 16.3302 28.8088 16.6279L26.0003 18.291L22.4054 14.3284C22.296 14.1551 22.141 14.0135 21.9573 13.9202C21.7619 13.813 21.5388 13.7716 21.3216 13.7977L14.8664 13.7977C14.4657 13.7977 14.1134 14.0049 13.9109 14.3181C13.7294 14.513 13.621 14.7762 13.6277 15.0635L13.7289 19.3954C13.7426 19.9796 14.2272 20.442 14.8113 20.4284C15.3955 20.4147 15.8579 19.9301 15.8443 19.346L15.7678 16.072Z" fill="white"/>
<path d="M18.7518 16.072L18.9681 16.1974L19.1858 15.822H18.7518V16.072ZM15.7678 16.072V15.822H15.5118L15.5178 16.0779L15.7678 16.072ZM18.5069 16.6906L18.2635 16.6336L18.5069 16.6906ZM17.6681 20.2736L17.9115 20.3306L17.6681 20.2736ZM19.1031 22.9119L19.2457 22.7066L19.2184 22.6877L19.1872 22.6765L19.1031 22.9119ZM23.5258 25.9817L23.7026 26.1585L23.9141 25.9469L23.6684 25.7763L23.5258 25.9817ZM20.6536 28.8541L20.8304 29.0308H20.8304L20.6536 28.8541ZM20.6536 30.3503L20.4768 30.5271H20.4768L20.6536 30.3503ZM22.1498 30.3503L21.973 30.1735H21.973L22.1498 30.3503ZM25.7994 26.7005L25.67 26.4866L25.644 26.5023L25.6226 26.5237L25.7994 26.7005ZM26.1605 26.3607L26.3659 26.5033H26.3659L26.1605 26.3607ZM25.8612 24.7033L26.0037 24.4979L25.8612 24.7033ZM21.827 21.9031L21.6096 21.7797L21.4968 21.9783L21.6844 22.1085L21.827 21.9031ZM22.0617 21.3023L21.8183 21.2453V21.2453L22.0617 21.3023ZM22.844 17.961L23.0291 17.793L22.7091 17.4402L22.6005 17.904L22.844 17.961ZM24.9469 20.279L25.132 20.111L24.9469 20.279ZM25.4194 20.5795L25.5202 20.3507L25.5067 20.3448L25.4926 20.3405L25.4194 20.5795ZM26.3858 20.5219L26.2584 20.3068V20.3068L26.3858 20.5219ZM29.8869 18.4486L29.7595 18.2335L29.8869 18.4486ZM30.2582 16.9992L30.0431 17.1265L30.2582 16.9992ZM28.8088 16.6279L28.9362 16.843L28.8088 16.6279ZM26.0003 18.291L25.8152 18.459L25.9522 18.61L26.1277 18.5061L26.0003 18.291ZM22.4054 14.3284L22.194 14.4619L22.2056 14.4802L22.2202 14.4963L22.4054 14.3284ZM21.9573 13.9202L21.8371 14.1395L21.8442 14.1431L21.9573 13.9202ZM21.3216 13.7977V14.0477H21.3365L21.3513 14.0459L21.3216 13.7977ZM14.8664 13.7977V13.5477V13.7977ZM13.9109 14.3181L14.0939 14.4884L14.1088 14.4723L14.1208 14.4539L13.9109 14.3181ZM13.6277 15.0635L13.3778 15.0694L13.6277 15.0635ZM13.7289 19.3954L13.9789 19.3896L13.7289 19.3954ZM14.8113 20.4284L14.8172 20.6783H14.8172L14.8113 20.4284ZM15.8443 19.346L15.5944 19.3518L15.8443 19.346ZM23.5873 12.9231C25.1538 12.9231 26.4237 11.6532 26.4237 10.0866H25.9237C25.9237 11.377 24.8777 12.4231 23.5873 12.4231V12.9231ZM20.7508 10.0866C20.7508 11.6532 22.0207 12.9231 23.5873 12.9231V12.4231C22.2969 12.4231 21.2508 11.377 21.2508 10.0866H20.7508ZM23.5873 7.25C22.0207 7.25 20.7508 8.51999 20.7508 10.0866H21.2508C21.2508 8.79611 22.2969 7.75 23.5873 7.75V7.25ZM26.4237 10.0866C26.4237 8.51999 25.1538 7.25 23.5873 7.25V7.75C24.8777 7.75 25.9237 8.79611 25.9237 10.0866H26.4237ZM18.7518 15.822H15.7678V16.322H18.7518V15.822ZM18.7503 16.7476C18.7968 16.549 18.8711 16.3646 18.9681 16.1974L18.5356 15.9466C18.4141 16.156 18.3213 16.3864 18.2635 16.6336L18.7503 16.7476ZM17.9115 20.3306L18.7503 16.7476L18.2635 16.6336L17.4247 20.2167L17.9115 20.3306ZM19.1872 22.6765C18.2396 22.3379 17.6766 21.3339 17.9115 20.3306L17.4247 20.2167C17.1312 21.4703 17.8346 22.7242 19.019 23.1474L19.1872 22.6765ZM18.9606 23.1173L23.3833 26.1871L23.6684 25.7763L19.2457 22.7066L18.9606 23.1173ZM23.349 25.8049L20.4768 28.6773L20.8304 29.0308L23.7026 26.1585L23.349 25.8049ZM20.4768 28.6773C19.966 29.1881 19.966 30.0163 20.4768 30.5271L20.8304 30.1735C20.5148 29.858 20.5148 29.3464 20.8304 29.0308L20.4768 28.6773ZM20.4768 30.5271C20.9876 31.0379 21.8158 31.0379 22.3265 30.5271L21.973 30.1735C21.6575 30.4891 21.1459 30.4891 20.8304 30.1735L20.4768 30.5271ZM22.3265 30.5271L25.9762 26.8773L25.6226 26.5237L21.973 30.1735L22.3265 30.5271ZM25.9288 26.9144C26.0971 26.8126 26.247 26.6746 26.3659 26.5033L25.9551 26.2182C25.877 26.3307 25.7793 26.4205 25.67 26.4866L25.9288 26.9144ZM26.3659 26.5033C26.8196 25.8495 26.6575 24.9517 26.0037 24.4979L25.7186 24.9087C26.1455 25.205 26.2514 25.7913 25.9551 26.2182L26.3659 26.5033ZM26.0037 24.4979L21.9695 21.6978L21.6844 22.1085L25.7186 24.9087L26.0037 24.4979ZM21.8183 21.2453C21.7733 21.4377 21.7021 21.6167 21.6096 21.7797L22.0444 22.0266C22.1603 21.8225 22.2491 21.5987 22.3052 21.3593L21.8183 21.2453ZM22.6005 17.904L21.8183 21.2453L22.3052 21.3593L23.0874 18.018L22.6005 17.904ZM25.132 20.111L23.0291 17.793L22.6588 18.1289L24.7617 20.4469L25.132 20.111ZM25.4926 20.3405C25.3586 20.2994 25.2335 20.2229 25.132 20.111L24.7617 20.4469C24.9253 20.6273 25.1284 20.7518 25.3461 20.8185L25.4926 20.3405ZM26.2584 20.3068C26.0253 20.4448 25.7513 20.4525 25.5202 20.3507L25.3186 20.8083C25.691 20.9723 26.1355 20.9607 26.5131 20.737L26.2584 20.3068ZM29.7595 18.2335L26.2584 20.3068L26.5131 20.737L30.0143 18.6637L29.7595 18.2335ZM30.0431 17.1265C30.2705 17.5105 30.1435 18.0061 29.7595 18.2335L30.0143 18.6637C30.6359 18.2956 30.8414 17.4934 30.4733 16.8718L30.0431 17.1265ZM28.9362 16.843C29.3202 16.6156 29.8157 16.7426 30.0431 17.1265L30.4733 16.8718C30.1053 16.2502 29.303 16.0447 28.6814 16.4128L28.9362 16.843ZM26.1277 18.5061L28.9362 16.843L28.6814 16.4128L25.8729 18.0759L26.1277 18.5061ZM22.2202 14.4963L25.8152 18.459L26.1855 18.123L22.5906 14.1604L22.2202 14.4963ZM21.8442 14.1431C21.9874 14.2159 22.1085 14.3265 22.194 14.4619L22.6168 14.1948C22.4834 13.9837 22.2946 13.8111 22.0705 13.6973L21.8442 14.1431ZM21.3513 14.0459C21.5176 14.026 21.6882 14.0577 21.8371 14.1394L22.0776 13.701C21.8356 13.5683 21.5599 13.5173 21.2918 13.5495L21.3513 14.0459ZM14.8664 14.0477L21.3216 14.0477V13.5477L14.8664 13.5477V14.0477ZM14.1208 14.4539C14.2792 14.2089 14.5541 14.0477 14.8664 14.0477V13.5477C14.3774 13.5477 13.9476 13.801 13.701 14.1823L14.1208 14.4539ZM13.8776 15.0577C13.8725 14.8382 13.9551 14.6375 14.0939 14.4884L13.7279 14.1478C13.5038 14.3885 13.3695 14.7143 13.3778 15.0694L13.8776 15.0577ZM13.9789 19.3896L13.8776 15.0577L13.3778 15.0694L13.479 19.4013L13.9789 19.3896ZM14.8055 20.1784C14.3594 20.1889 13.9893 19.8357 13.9789 19.3896L13.479 19.4013C13.4959 20.1234 14.095 20.6952 14.8172 20.6783L14.8055 20.1784ZM15.5944 19.3518C15.6048 19.7979 15.2516 20.168 14.8055 20.1784L14.8172 20.6783C15.5393 20.6614 16.1111 20.0623 16.0942 19.3401L15.5944 19.3518ZM15.5178 16.0779L15.5944 19.3518L16.0942 19.3401L16.0177 16.0662L15.5178 16.0779Z" fill="white"/>
<path fill-rule="evenodd" clip-rule="evenodd" d="M17.6469 24.0689C17.3465 23.9096 16.9743 24.0479 16.8509 24.3647L15.4214 28.0355L11.4037 31.6561C10.9697 32.0473 10.9349 32.7163 11.326 33.1504C11.7172 33.5844 12.3861 33.6192 12.8202 33.228L16.8731 29.5757C16.9448 29.511 17.0057 29.4388 17.0555 29.3612C17.1487 29.2594 17.223 29.1372 17.2707 28.9983L18.6038 25.1195C18.6947 24.855 18.5797 24.5637 18.3326 24.4327L17.6469 24.0689Z" fill="white"/>
<path d="M16.8509 24.3647L17.0839 24.4555V24.4555L16.8509 24.3647ZM17.6469 24.0689L17.5297 24.2898V24.2898L17.6469 24.0689ZM15.4214 28.0355L15.5887 28.2212L15.6328 28.1815L15.6543 28.1262L15.4214 28.0355ZM11.4037 31.6561L11.5711 31.8418H11.5711L11.4037 31.6561ZM11.326 33.1504L11.5118 32.983L11.5118 32.983L11.326 33.1504ZM12.8202 33.228L12.6528 33.0423H12.6528L12.8202 33.228ZM16.8731 29.5757L16.7057 29.39L16.8731 29.5757ZM17.0555 29.3612L16.8711 29.1924L16.8567 29.2082L16.8451 29.2261L17.0555 29.3612ZM17.2707 28.9983L17.0343 28.9171L17.2707 28.9983ZM18.6038 25.1195L18.3674 25.0383V25.0383L18.6038 25.1195ZM18.3326 24.4327L18.4498 24.2118L18.3326 24.4327ZM17.0839 24.4555C17.153 24.278 17.3615 24.2005 17.5297 24.2898L17.764 23.848C17.3315 23.6186 16.7956 23.8178 16.618 24.274L17.0839 24.4555ZM15.6543 28.1262L17.0839 24.4555L16.618 24.274L15.1884 27.9448L15.6543 28.1262ZM11.5711 31.8418L15.5887 28.2212L15.254 27.8498L11.2364 31.4704L11.5711 31.8418ZM11.5118 32.983C11.213 32.6515 11.2396 32.1406 11.5711 31.8418L11.2364 31.4704C10.6998 31.954 10.6567 32.7811 11.1403 33.3177L11.5118 32.983ZM12.6528 33.0423C12.3214 33.3411 11.8105 33.3145 11.5118 32.983L11.1403 33.3177C11.6239 33.8544 12.4509 33.8974 12.9876 33.4138L12.6528 33.0423ZM16.7057 29.39L12.6528 33.0423L12.9876 33.4138L17.0404 29.7614L16.7057 29.39ZM16.8451 29.2261C16.8072 29.2851 16.7608 29.3403 16.7057 29.39L17.0404 29.7614C17.1288 29.6817 17.2041 29.5924 17.2658 29.4964L16.8451 29.2261ZM17.0343 28.9171C16.9979 29.0229 16.9416 29.1154 16.8711 29.1924L17.2399 29.5301C17.3558 29.4034 17.448 29.2515 17.5071 29.0796L17.0343 28.9171ZM18.3674 25.0383L17.0343 28.9171L17.5071 29.0796L18.8402 25.2008L18.3674 25.0383ZM18.2155 24.6535C18.3539 24.7269 18.4183 24.8901 18.3674 25.0383L18.8402 25.2008C18.9711 24.8199 18.8055 24.4005 18.4498 24.2118L18.2155 24.6535ZM17.5297 24.2898L18.2155 24.6535L18.4498 24.2118L17.764 23.848L17.5297 24.2898Z" fill="white"/>
</svg>
