<svg width="41" height="41" viewBox="0 0 41 41" fill="none" xmlns="http://www.w3.org/2000/svg">
    <g id="&#232;&#174;&#190;&#231;&#189;&#174;&#230;&#181;&#133;&#232;&#137;&#178;"
        clip-path="url(#clip0_3360_11914)">
        <mask id="mask0_3360_11914" style="mask-type:alpha" maskUnits="userSpaceOnUse" x="0" y="0"
            width="41" height="41">
            <rect id="Mask" x="0.0539551" y="0.968643" width="40" height="40" rx="8.33333"
                fill="white" />
        </mask>
        <g mask="url(#mask0_3360_11914)">
            <path id="&#232;&#131;&#140;&#230;&#153;&#175;"
                d="M-9.94592 -9.03136H50.0541V50.9686H-9.94592V-9.03136Z"
                fill="url(#paint0_linear_3360_11914)" />
            <g id="Group 69928" filter="url(#filter0_d_3360_11914)">
                <g id="Subtract" filter="url(#filter1_i_3360_11914)">
                    <path fill-rule="evenodd" clip-rule="evenodd"
                        d="M19.8897 7.28311H20.2186C20.6535 7.28311 21.0282 6.97612 21.1135 6.54963L21.226 5.98687C21.2805 5.71457 21.5303 5.52511 21.8063 5.55614C21.9885 5.57662 22.1697 5.60025 22.3499 5.62698C22.625 5.6678 22.818 5.91575 22.8001 6.19334L22.7631 6.76683C22.7351 7.20086 23.0174 7.59431 23.4375 7.70688L23.7551 7.79199C24.1752 7.90456 24.6164 7.70495 24.8092 7.31507L25.0648 6.79801C25.188 6.54887 25.4787 6.43058 25.7373 6.53245C25.9077 6.59959 26.0767 6.66965 26.2441 6.74259C26.4987 6.85354 26.6205 7.14263 26.5315 7.40576L26.3467 7.95191C26.2073 8.36391 26.3781 8.81701 26.7548 9.03448L27.0396 9.19889C27.4162 9.41636 27.894 9.33773 28.1811 9.01103L28.5598 8.5802C28.7434 8.3713 29.055 8.3324 29.2785 8.49795C29.4255 8.60684 29.5705 8.71826 29.7134 8.83216C29.9307 9.0053 29.9735 9.31608 29.8194 9.54724L29.5014 10.0241C29.2602 10.386 29.3079 10.8679 29.6154 11.1754L29.848 11.408C30.1555 11.7155 30.6374 11.7632 30.9993 11.522L31.4762 11.204C31.7073 11.0499 32.0181 11.0927 32.1913 11.31C32.3051 11.4528 32.4165 11.5978 32.5253 11.7447C32.6909 11.9681 32.652 12.2798 32.4431 12.4634L32.0123 12.842C31.6856 13.1291 31.607 13.6069 31.8244 13.9835L31.9889 14.2683C32.2063 14.645 32.6594 14.8158 33.0714 14.6764L33.6176 14.4916C33.8807 14.4026 34.1698 14.5244 34.2808 14.779C34.3537 14.9465 34.4238 15.1155 34.491 15.286C34.5929 15.5445 34.4746 15.8353 34.2254 15.9585L33.7084 16.2141C33.3185 16.4069 33.1189 16.8481 33.2315 17.2682L33.3166 17.5858C33.4291 18.0059 33.8226 18.2882 34.2566 18.2602L34.8302 18.2232C35.1078 18.2053 35.3557 18.3983 35.3965 18.6734C35.4233 18.8538 35.447 19.0352 35.4675 19.2175C35.4985 19.4935 35.309 19.7433 35.0367 19.7978L34.4739 19.9103C34.0474 19.9956 33.7405 20.3701 33.7405 20.805V21.1338C33.7405 21.5688 34.0474 21.9432 34.4739 22.0285L35.0367 22.1411C35.309 22.1956 35.4985 22.4454 35.4675 22.7214C35.447 22.9037 35.4233 23.085 35.3966 23.2654C35.3557 23.5405 35.1078 23.7335 34.8302 23.7156L34.2567 23.6786C33.8227 23.6506 33.4293 23.9329 33.3167 24.353L33.2316 24.6706C33.119 25.0907 33.3186 25.5319 33.7085 25.7247L34.2255 25.9803C34.4746 26.1035 34.5929 26.3942 34.491 26.6528C34.4239 26.8232 34.3538 26.9921 34.2809 27.1595C34.1699 27.4142 33.8808 27.5359 33.6177 27.4469L33.0717 27.2622C32.6597 27.1228 32.2066 27.2936 31.9891 27.6703L31.8247 27.9551C31.6072 28.3317 31.6858 28.8095 32.0125 29.0967L32.4433 29.4752C32.6522 29.6588 32.6911 29.9705 32.5255 30.1939C32.4166 30.3409 32.3052 30.4858 32.1914 30.6287C32.0182 30.846 31.7074 30.8888 31.4763 30.7347L30.9997 30.4169C30.6378 30.1757 30.1559 30.2234 29.8483 30.531L29.6158 30.7635C29.3083 31.071 29.2606 31.5529 29.5018 31.9148L29.8196 32.3914C29.9737 32.6226 29.9309 32.9334 29.7136 33.1065C29.5707 33.2204 29.4257 33.3319 29.2787 33.4408C29.0552 33.6063 28.7435 33.5674 28.5599 33.3585L28.1816 32.928C27.8945 32.6013 27.4167 32.5227 27.04 32.7402L26.7552 32.9046C26.3786 33.1221 26.2078 33.5752 26.3472 33.9872L26.5318 34.5329C26.6208 34.7961 26.4991 35.0852 26.2444 35.1961C26.0769 35.2691 25.9079 35.3392 25.7374 35.4064C25.4788 35.5082 25.1881 35.3899 25.0649 35.1408L24.8094 34.6241C24.6167 34.2342 24.1755 34.0346 23.7554 34.1472L23.4378 34.2323C23.0176 34.3449 22.7354 34.7383 22.7634 35.1724L22.8003 35.7455C22.8182 36.0231 22.6253 36.271 22.3501 36.3118C22.1698 36.3386 21.9885 36.3622 21.8062 36.3827C21.5303 36.4137 21.2804 36.2243 21.2259 35.952L21.1135 35.3897C21.0282 34.9632 20.6537 34.6562 20.2188 34.6562H19.8899C19.455 34.6562 19.0805 34.9632 18.9952 35.3897L18.8828 35.952C18.8283 36.2243 18.5785 36.4138 18.3025 36.3828C18.1202 36.3623 17.9388 36.3386 17.7584 36.3119C17.4833 36.2711 17.2903 36.0231 17.3082 35.7455L17.3452 35.1722C17.3732 34.7382 17.0909 34.3448 16.6708 34.2322L16.3532 34.1471C15.9331 34.0345 15.4919 34.2341 15.2991 34.624L15.0436 35.1409C14.9204 35.39 14.6296 35.5083 14.3711 35.4064C14.2006 35.3393 14.0317 35.2692 13.8643 35.1963C13.6096 35.0853 13.4879 34.7963 13.5769 34.5331L13.7616 33.9872C13.901 33.5752 13.7301 33.1221 13.3535 32.9046L13.0687 32.7402C12.692 32.5227 12.2142 32.6013 11.9271 32.928L11.5486 33.3587C11.365 33.5676 11.0534 33.6065 10.8299 33.441C10.6829 33.3321 10.5379 33.2207 10.395 33.1068C10.1777 32.9336 10.1349 32.6229 10.289 32.3917L10.6068 31.9149C10.8481 31.5531 10.8004 31.0712 10.4928 30.7636L10.2603 30.5311C9.95278 30.2236 9.47091 30.1759 9.10902 30.4171L8.63222 30.735C8.40106 30.8891 8.09028 30.8463 7.91714 30.629C7.80322 30.4861 7.69178 30.3411 7.58287 30.1941C7.41731 29.9706 7.45622 29.6589 7.66512 29.4753L8.09574 29.0969C8.18265 29.0205 8.252 28.9306 8.3029 28.8328C8.30536 28.828 8.30778 28.8233 8.31015 28.8185C8.31211 28.8146 8.31404 28.8107 8.31593 28.8067C8.44338 28.5416 8.43843 28.2226 8.28383 27.9549L8.11941 27.6701C7.90195 27.2934 7.44885 27.1226 7.03685 27.262L6.49051 27.4468C6.22738 27.5358 5.93829 27.4141 5.82733 27.1594C5.75443 26.9921 5.68439 26.8232 5.61728 26.6529C5.5154 26.3943 5.63369 26.1036 5.88284 25.9804L6.39989 25.7247C6.78977 25.5319 6.98938 25.0908 6.87682 24.6707L6.79171 24.353C6.67914 23.9329 6.28569 23.6507 5.85165 23.6787L5.2781 23.7157C5.00051 23.7336 4.75257 23.5406 4.71174 23.2654C4.685 23.0852 4.66136 22.904 4.64087 22.7218C4.60985 22.4459 4.7993 22.196 5.0716 22.1415L5.63434 22.029C6.06083 21.9437 6.36782 21.5692 6.36782 21.1343V20.8055C6.36782 20.3705 6.06083 19.9961 5.63434 19.9108L5.07151 19.7982C4.79922 19.7437 4.60976 19.4939 4.64077 19.218C4.66126 19.0356 4.68491 18.8543 4.71166 18.6739C4.75248 18.3988 5.00043 18.2058 5.27802 18.2237L5.85176 18.2607C6.2858 18.2887 6.67925 18.0064 6.79182 17.5863L6.87693 17.2687C6.98949 16.8486 6.78988 16.4074 6.4 16.2146L5.88269 15.9588C5.63355 15.8357 5.51525 15.5449 5.61713 15.2863C5.68425 15.116 5.7543 14.9471 5.82721 14.7797C5.93816 14.525 6.22726 14.4033 6.49039 14.4923L7.03663 14.6771C7.44862 14.8165 7.90172 14.6457 8.11919 14.269L8.28361 13.9842C8.50107 13.6076 8.42244 13.1298 8.09574 12.8426L7.66481 12.4639C7.45592 12.2803 7.41701 11.9687 7.58256 11.7452C7.69146 11.5982 7.80291 11.4532 7.91683 11.3102C8.08997 11.093 8.40075 11.0501 8.63191 11.2042L9.10907 11.5223C9.47096 11.7636 9.95283 11.7159 10.2604 11.4083L10.4929 11.1758C10.8004 10.8683 10.8481 10.3864 10.6069 10.0245L10.2888 9.54735C10.1347 9.31619 10.1775 9.00541 10.3947 8.83227C10.5377 8.71837 10.6827 8.60694 10.8296 8.49804C11.0531 8.33249 11.3648 8.37139 11.5484 8.58029L11.9271 9.01125C12.2142 9.33795 12.692 9.41658 13.0687 9.19912L13.3535 9.0347C13.7301 8.81723 13.9009 8.36413 13.7616 7.95214L13.5767 7.4058C13.4877 7.14266 13.6095 6.85358 13.8641 6.74262C14.0315 6.66969 14.2005 6.59963 14.3709 6.53249C14.6294 6.43062 14.9202 6.54891 15.0434 6.79805L15.2991 7.31518C15.4918 7.70506 15.933 7.90467 16.3531 7.7921L16.6707 7.707C17.0909 7.59443 17.3731 7.20097 17.3451 6.76694L17.3081 6.19335C17.2902 5.91577 17.4832 5.66782 17.7583 5.62699C17.9386 5.60025 18.1199 5.5766 18.3022 5.55611C18.5782 5.52509 18.828 5.71455 18.8825 5.98684L18.995 6.54963C19.0803 6.97612 19.4548 7.28311 19.8897 7.28311ZM10.5238 25.3493C9.91016 24.0165 9.56796 22.5329 9.56796 20.9693C9.56796 15.5058 13.7465 11.0181 19.0821 10.5279L19.0821 18.2185C17.9491 18.6188 17.1373 19.6993 17.1373 20.9693C17.1373 21.1516 17.154 21.3299 17.186 21.5029L10.5238 25.3493ZM22.9706 20.9693C22.9706 21.1514 22.954 21.3296 22.922 21.5025L29.5842 25.3489C30.1976 24.0161 30.5398 22.5327 30.5398 20.9693C30.5398 15.5061 26.3617 11.0187 21.0266 10.5279V18.2187C22.1592 18.6192 22.9706 19.6995 22.9706 20.9693ZM20.054 23.886C19.3305 23.886 18.6686 23.6226 18.1589 23.1865L11.4975 27.0324C13.3975 29.7088 16.5217 31.4552 20.0539 31.4552C23.5862 31.4552 26.7106 29.7086 28.6105 27.032L21.9494 23.1862C21.4396 23.6225 20.7776 23.886 20.054 23.886ZM20.054 22.0803C20.6676 22.0803 21.1651 21.5828 21.1651 20.9692C21.1651 20.3555 20.6676 19.8581 20.054 19.8581C19.4403 19.8581 18.9429 20.3555 18.9429 20.9692C18.9429 21.5828 19.4403 22.0803 20.054 22.0803Z"
                        fill="#E9F4FF" />
                </g>
            </g>
        </g>
    </g>
    <defs>
        <filter id="filter0_d_3360_11914" x="-0.362548" y="1.10834" width="40.8334" height="40.8333"
            filterUnits="userSpaceOnUse" color-interpolation-filters="sRGB">
            <feFlood flood-opacity="0" result="BackgroundImageFix" />
            <feColorMatrix in="SourceAlpha" type="matrix"
                values="0 0 0 0 0 0 0 0 0 0 0 0 0 0 0 0 0 0 127 0" result="hardAlpha" />
            <feOffset dy="0.555556" />
            <feGaussianBlur stdDeviation="2.5" />
            <feComposite in2="hardAlpha" operator="out" />
            <feColorMatrix type="matrix"
                values="0 0 0 0 0.391319 0 0 0 0 0.478598 0 0 0 0 0.583333 0 0 0 0.48 0" />
            <feBlend mode="normal" in2="BackgroundImageFix"
                result="effect1_dropShadow_3360_11914" />
            <feBlend mode="normal" in="SourceGraphic" in2="effect1_dropShadow_3360_11914"
                result="shape" />
        </filter>
        <filter id="filter1_i_3360_11914" x="4.63745" y="5.55279" width="30.8334" height="30.9722"
            filterUnits="userSpaceOnUse" color-interpolation-filters="sRGB">
            <feFlood flood-opacity="0" result="BackgroundImageFix" />
            <feBlend mode="normal" in="SourceGraphic" in2="BackgroundImageFix" result="shape" />
            <feColorMatrix in="SourceAlpha" type="matrix"
                values="0 0 0 0 0 0 0 0 0 0 0 0 0 0 0 0 0 0 127 0" result="hardAlpha" />
            <feOffset dy="0.138889" />
            <feGaussianBlur stdDeviation="0.138889" />
            <feComposite in2="hardAlpha" operator="arithmetic" k2="-1" k3="1" />
            <feColorMatrix type="matrix" values="0 0 0 0 1 0 0 0 0 1 0 0 0 0 1 0 0 0 1 0" />
            <feBlend mode="normal" in2="shape" result="effect1_innerShadow_3360_11914" />
        </filter>
        <linearGradient id="paint0_linear_3360_11914" x1="20.0541" y1="50.9686" x2="20.0541"
            y2="-9.03136" gradientUnits="userSpaceOnUse">
            <stop stop-color="#677A96" />
            <stop offset="1" stop-color="#7C9DBC" />
        </linearGradient>
        <clipPath id="clip0_3360_11914">
            <rect width="40" height="40" fill="white" transform="translate(0.0539551 0.96772)" />
        </clipPath>
    </defs>
</svg>
