<svg width="24" height="24" viewBox="0 0 24 24" fill="none" xmlns="http://www.w3.org/2000/svg">
    <g id="&#233;&#161;&#181;&#233;&#157;&#162;&#232;&#183;&#179;&#232;&#189;&#172; / &#229;&#133;&#179;&#233;&#151;&#173;">
        <path id="Union"
            d="M13.4017 11.9994L19.3549 17.9525C19.5484 18.1459 19.5484 18.4595 19.3549 18.6529L18.6545 19.3533C18.4611 19.5467 18.1475 19.5467 17.9541 19.3533L12.0008 13.4002L6.0459 19.3549C5.85248 19.5484 5.53889 19.5484 5.34547 19.3549L4.64506 18.6546C4.45165 18.4611 4.45165 18.1476 4.64506 17.9542L10.6 11.9994L4.64617 6.04584C4.45275 5.85243 4.45275 5.53885 4.64617 5.34544L5.34658 4.64506C5.53999 4.45165 5.85359 4.45165 6.047 4.64506L12.0008 10.5987L17.953 4.64675C18.1464 4.45334 18.46 4.45334 18.6534 4.64675L19.3538 5.34713C19.5473 5.54054 19.5473 5.85412 19.3538 6.04753L13.4017 11.9994Z"
            fill="black" />
    </g>
</svg>
