<svg width="28" height="28" viewBox="0 0 28 28" fill="none" xmlns="http://www.w3.org/2000/svg">
<path fill-rule="evenodd" clip-rule="evenodd" d="M16.9242 19.3998C16.9027 19.4307 16.881 19.462 16.8592 19.4936L16.9242 19.3998ZM13.625 21.1074L13.6259 21.1078C13.9006 21.2614 14.2596 21.3814 14.6204 21.4192C14.9759 21.4565 15.3741 21.4177 15.6932 21.2049C16.298 20.8167 16.7408 20.1771 17.0919 19.6698L17.1628 19.5676C17.2957 19.3804 17.4413 19.1871 17.5978 19.0413C17.7592 18.8909 17.8907 18.8302 17.9941 18.8302C18.2866 18.8302 18.9778 19.0099 20.3115 19.7616L20.3115 19.7616L20.3167 19.7645C21.5269 20.414 22.1569 20.8127 22.4763 21.1281C22.629 21.2788 22.695 21.396 22.725 21.4976C22.7556 21.6016 22.7576 21.7189 22.7335 21.8889L22.733 21.8928C22.6364 22.6462 22.1825 23.4499 21.5425 24.0685C20.9018 24.6878 20.1155 25.0827 19.3868 25.0834C15.6465 25.0302 11.4389 22.561 8.42044 19.2569C5.40096 15.9517 3.26312 11.5071 3.52107 7.79656C3.59316 7.06063 4.06089 6.30416 4.73398 5.70988C5.40713 5.11553 6.24424 4.72068 6.9937 4.67202L6.9937 4.67203L6.99571 4.67189C7.16648 4.65961 7.27862 4.66891 7.37461 4.70428C7.46765 4.73856 7.57388 4.80807 7.70864 4.96676C7.99169 5.3001 8.33699 5.94677 8.90234 7.19302L8.90284 7.19411C9.21997 7.88559 9.41397 8.40856 9.52208 8.79894C9.6317 9.19478 9.64649 9.4318 9.62807 9.56158L9.62802 9.56158L9.62739 9.56663C9.61231 9.68806 9.53073 9.83228 9.37285 9.98527C9.21877 10.1346 9.01784 10.2667 8.82289 10.3648L8.80364 10.3745L8.78602 10.3869C8.66252 10.4739 8.52956 10.5613 8.38842 10.6541L8.36915 10.6668C8.22237 10.7633 8.06789 10.8652 7.91605 10.9728C7.61384 11.1871 7.30683 11.4347 7.06743 11.7358L7.06741 11.7358L7.06497 11.739C6.82644 12.0476 6.73662 12.4405 6.73662 12.8123C6.73662 13.1831 6.82545 13.5613 6.97779 13.8707C7.58278 15.2517 8.6183 16.7288 9.75432 17.9809L9.75427 17.9809L9.75872 17.9856C10.8954 19.184 12.2552 20.3354 13.625 21.1074Z" fill="#CCCCCC"/>
<path fill-rule="evenodd" clip-rule="evenodd" d="M13.7885 5.8154L13.9404 4.75181L13.9404 4.73267C13.9404 4.57887 14.0454 4.47176 14.1979 4.46883C16.8793 4.61969 19.5528 5.66315 21.5549 7.66528C23.5588 9.66917 24.5999 12.3427 24.6752 14.943C24.6737 15.0972 24.5662 15.2036 24.4114 15.2036L24.3922 15.2036L23.3286 15.3555C23.1815 15.3482 23.0812 15.2425 23.0812 15.092L23.0809 15.0827C23.0026 12.8128 22.1413 10.5368 20.4123 8.80785C18.6826 7.07816 16.4083 6.21945 14.0699 6.06356L14.061 6.06297L14.052 6.06297C13.9016 6.06297 13.7958 5.96251 13.7885 5.8154Z" fill="#CCCCCC"/>
<path fill-rule="evenodd" clip-rule="evenodd" d="M20.1458 15.6608L20.1267 15.6608L19.0631 15.8127C18.9181 15.8056 18.8185 15.7028 18.8156 15.5559C18.8935 14.1817 18.3278 12.8171 17.3655 11.8549C16.4033 10.8927 15.0388 10.3269 13.6646 10.4049C13.5176 10.402 13.4149 10.3023 13.4077 10.1574L13.5596 9.09378L13.5596 9.07465C13.5596 8.91869 13.6676 8.811 13.8235 8.811L13.8352 8.8105C15.5073 8.7378 17.1872 9.39139 18.5081 10.7123C19.8291 12.0333 20.4824 13.7131 20.4097 15.3852L20.4097 15.3969C20.4097 15.5528 20.3017 15.6608 20.1458 15.6608Z" fill="#CCCCCC"/>
</svg>
