<svg width="45" height="44" viewBox="0 0 45 44" fill="none" xmlns="http://www.w3.org/2000/svg">
    <path d="M4.25952 9.13961V26.6184C4.25952 29.8021 5.78428 32.7926 8.36161 34.6625L20.3066 43.33C21.538 44.2233 23.205 44.2233 24.4364 43.33L36.3814 34.6625C37.6516 33.7408 38.6856 32.5313 39.3986 31.1332C40.1116 29.735 40.4833 28.1879 40.4835 26.6184V9.13961C40.4835 7.98777 39.7931 6.94861 38.7325 6.50146L24.1645 0.362188C23.5973 0.123145 22.988 0 22.3724 0C21.7568 0 21.1475 0.123145 20.5802 0.362188L6.01232 6.50146C5.4933 6.72018 5.05033 7.08714 4.73887 7.55641C4.42741 8.02567 4.26129 8.57638 4.26131 9.13961H4.25952Z" fill="#FFBE0A"/>
    <path d="M28.2769 19.6023L23.4259 19.4868C23.0024 19.4868 22.8099 19.1403 22.9639 18.7553L25.6974 12.3258C25.8514 11.9408 25.6589 11.6328 25.2354 11.6328H21.1159C20.6539 11.6713 20.2689 11.9408 20.1149 12.3258L16.0724 23.1828C15.9184 23.5678 16.1494 23.8758 16.5344 23.8758H20.4229C20.8079 23.8758 21.0774 24.2223 21.0004 24.6458L19.7299 30.9598C19.3834 32.6153 19.8839 32.8463 20.8464 31.4603L28.5849 20.1798C28.8544 19.9103 28.7004 19.6023 28.2769 19.6023Z" fill="#F6F6F6"/>
</svg>
