<svg width="12" height="12" viewBox="0 0 12 12" fill="none" xmlns="http://www.w3.org/2000/svg">
<path d="M9.35993 1.5058C9.50208 1.36365 9.4867 1.12806 9.3197 1.01615C7.31707 -0.325921 4.69155 -0.339099 2.68885 0.979604C2.52019 1.09066 2.50391 1.3275 2.64671 1.47029L3.19769 2.02127C3.31103 2.13461 3.48854 2.14972 3.62595 2.06719C5.07937 1.19417 6.92163 1.20247 8.37945 2.09913C8.51705 2.18377 8.69632 2.16941 8.81056 2.05517L9.35993 1.5058Z" fill="black" fill-opacity="0.8"/>
<path d="M9.97633 3.24077C9.86322 3.35388 9.84792 3.53098 9.93009 3.66823C10.9867 5.43307 10.7558 7.74312 9.24984 9.24911C7.47118 11.0278 4.57095 11.0277 2.77197 9.22876C1.24451 7.7013 1.01395 5.37991 2.0679 3.62524C2.15044 3.48783 2.13535 3.3103 2.02201 3.19695L1.47102 2.64597C1.32823 2.50318 1.09137 2.51949 0.980319 2.68815C-0.550638 5.01322 -0.286426 8.17775 1.76828 10.2325C4.11704 12.5812 7.91601 12.5903 10.2535 10.2528C12.2925 8.21387 12.546 5.06301 11.0187 2.73255C10.9078 2.56333 10.6705 2.54664 10.5274 2.6897L9.97633 3.24077Z" fill="black" fill-opacity="0.8"/>
</svg>
