<svg width="24" height="24" viewBox="0 0 24 24" fill="none" xmlns="http://www.w3.org/2000/svg">
<path fill-rule="evenodd" clip-rule="evenodd" d="M8 2H16C16.5523 2 17 2.44772 17 3V3.5C17 3.77614 16.7761 4 16.5 4H7.5C7.22386 4 7 3.77614 7 3.5V3C7 2.44772 7.44772 2 8 2ZM2.5 5H21.5C21.7761 5 22 5.22386 22 5.5V6.5C22 6.77614 21.7761 7 21.5 7H20V19C20 20.6569 18.6569 22 17 22H7C5.34315 22 4 20.6569 4 19V7H2.5C2.22386 7 2 6.77614 2 6.5V5.5C2 5.22386 2.22386 5 2.5 5ZM6 7H18V19C18 19.5523 17.5523 20 17 20H7C6.44772 20 6 19.5523 6 19V7ZM11 17V10C11 9.72386 10.7761 9.5 10.5 9.5H9.5C9.22386 9.5 9 9.72386 9 10L9 17C9 17.2761 9.22386 17.5 9.5 17.5H10.5C10.7761 17.5 11 17.2761 11 17ZM15 17V10C15 9.72386 14.7761 9.5 14.5 9.5H13.5C13.2239 9.5 13 9.72386 13 10V17C13 17.2761 13.2239 17.5 13.5 17.5H14.5C14.7761 17.5 15 17.2761 15 17Z" fill="#FF0000"/>
</svg>
