<svg width="40" height="40" viewBox="0 0 40 40" fill="none" xmlns="http://www.w3.org/2000/svg">
<g clip-path="url(#clip0_7314_7767)">
<rect width="40" height="40" rx="8" fill="white"/>
<mask id="mask0_7314_7767" style="mask-type:luminance" maskUnits="userSpaceOnUse" x="-1" y="-1" width="41" height="41">
<rect x="-0.00585938" y="-0.00585938" width="40" height="40" fill="white"/>
</mask>
<g mask="url(#mask0_7314_7767)">
<path d="M-0.00585938 -0.00585938H39.9941V39.9941H-0.00585938V-0.00585938Z" fill="url(#paint0_linear_7314_7767)"/>
<g filter="url(#filter0_iii_7314_7767)">
<rect x="14.375" y="8.125" width="11.25" height="17.5" rx="5.625" fill="#E2ECFF"/>
<path fill-rule="evenodd" clip-rule="evenodd" d="M11.875 17.5C12.2202 17.5 12.5 17.7798 12.5 18.125V19.8864C12.5 24.1065 15.873 27.5 20 27.5C24.127 27.5 27.5 24.1065 27.5 19.8864V18.125C27.5 17.7798 27.7798 17.5 28.125 17.5H29.375C29.7202 17.5 30 17.7798 30 18.125V19.8864C30 25.4567 25.538 30 20 30C14.462 30 10 25.4567 10 19.8864V18.125C10 17.7798 10.2798 17.5 10.625 17.5H11.875Z" fill="#E2ECFF"/>
<rect x="18.75" y="28.75" width="2.5" height="3.75" rx="0.625" fill="#E2ECFF"/>
</g>
<path fill-rule="evenodd" clip-rule="evenodd" d="M18 13C17.4477 13 17 13.4477 17 14C17 14.5523 17.4477 15 18 15L19 15L19 19C19 19.5523 19.4477 20 20 20C20.5523 20 21 19.5523 21 19L21 15H22C22.5523 15 23 14.5523 23 14C23 13.4477 22.5523 13 22 13H18Z" fill="#4696FF"/>
</g>
</g>
<defs>
<filter id="filter0_iii_7314_7767" x="5" y="4.88" width="30" height="30.12" filterUnits="userSpaceOnUse" color-interpolation-filters="sRGB">
<feFlood flood-opacity="0" result="BackgroundImageFix"/>
<feBlend mode="normal" in="SourceGraphic" in2="BackgroundImageFix" result="shape"/>
<feColorMatrix in="SourceAlpha" type="matrix" values="0 0 0 0 0 0 0 0 0 0 0 0 0 0 0 0 0 0 127 0" result="hardAlpha"/>
<feOffset dy="-0.44"/>
<feComposite in2="hardAlpha" operator="arithmetic" k2="-1" k3="1"/>
<feColorMatrix type="matrix" values="0 0 0 0 0.607843 0 0 0 0 0.733333 0 0 0 0 0.980392 0 0 0 0.8 0"/>
<feBlend mode="normal" in2="shape" result="effect1_innerShadow_7314_7767"/>
<feColorMatrix in="SourceAlpha" type="matrix" values="0 0 0 0 0 0 0 0 0 0 0 0 0 0 0 0 0 0 127 0" result="hardAlpha"/>
<feOffset dy="-0.12"/>
<feGaussianBlur stdDeviation="0.06"/>
<feComposite in2="hardAlpha" operator="arithmetic" k2="-1" k3="1"/>
<feColorMatrix type="matrix" values="0 0 0 0 0.607843 0 0 0 0 0.733333 0 0 0 0 0.980392 0 0 0 0.6 0"/>
<feBlend mode="normal" in2="effect1_innerShadow_7314_7767" result="effect2_innerShadow_7314_7767"/>
<feColorMatrix in="SourceAlpha" type="matrix" values="0 0 0 0 0 0 0 0 0 0 0 0 0 0 0 0 0 0 127 0" result="hardAlpha"/>
<feOffset dy="-0.12"/>
<feComposite in2="hardAlpha" operator="arithmetic" k2="-1" k3="1"/>
<feColorMatrix type="matrix" values="0 0 0 0 1 0 0 0 0 1 0 0 0 0 1 0 0 0 0.1 0"/>
<feBlend mode="normal" in2="effect2_innerShadow_7314_7767" result="effect3_innerShadow_7314_7767"/>
</filter>
<linearGradient id="paint0_linear_7314_7767" x1="19.9941" y1="-0.00585938" x2="19.9941" y2="39.9941" gradientUnits="userSpaceOnUse">
<stop stop-color="#4696FF"/>
<stop offset="1" stop-color="#2684FF"/>
</linearGradient>
<clipPath id="clip0_7314_7767">
<rect width="40" height="40" rx="8" fill="white"/>
</clipPath>
</defs>
</svg>
