<svg width="44" height="44" viewBox="0 0 44 44" fill="none" xmlns="http://www.w3.org/2000/svg">
<rect width="44" height="44" rx="22" fill="#00C780"/>
<path d="M15.9875 34.261L19.5619 30.0097C19.9062 29.5941 19.9656 29.4991 20.1081 29.0598L20.3694 28.2522L18.4575 25.8536L17.8756 28.5373L14.3487 32.7173C13.2325 34.0591 15.0731 35.3654 15.9875 34.261ZM24.68 33.9047C25.4162 35.3892 27.6012 34.4748 26.8056 32.8598L24.3831 27.9554C24.1931 27.5872 23.9437 27.1835 23.7181 26.8628L22.1862 24.6897L22.2931 24.3692C22.6969 23.1341 22.8512 22.3979 22.9462 21.1748L23.1837 17.7429C23.3025 16.116 22.3406 14.881 20.6662 14.881C19.4194 14.881 18.5644 15.5104 17.4125 16.6385L15.5956 18.4316C15.0019 19.0135 14.8119 19.4885 14.7525 20.2604L14.5387 23.0628C14.4794 23.7754 14.8712 24.2741 15.5244 24.2979C16.1894 24.3454 16.5931 23.9536 16.6525 23.1936L16.9256 20.1179L17.7925 19.3341C18.1131 19.0491 18.5169 19.2391 18.505 19.5598L18.315 22.1603C18.2081 23.4785 18.5169 24.1079 19.4194 25.236L21.83 28.2522C22.0675 28.561 22.0912 28.6798 22.1981 28.8697L24.68 33.9047ZM28.8125 19.5123H26.0694L24.3475 17.6004L24.1456 20.4623L24.8344 21.151C25.2144 21.531 25.5469 21.6497 26.2593 21.6497H28.8125C29.525 21.6497 30 21.246 30 20.581C30 19.9398 29.5131 19.5123 28.8125 19.5123ZM21.9962 13.8123C23.4212 13.8123 24.5731 12.6485 24.5731 11.2235C24.5731 9.78664 23.4212 8.63477 21.9962 8.63477C20.5594 8.63477 19.4075 9.78664 19.4075 11.2235C19.4075 12.6485 20.5594 13.8123 21.9962 13.8123Z" fill="white"/>
</svg>
