<svg width="24" height="24" viewBox="0 0 24 24" fill="none" xmlns="http://www.w3.org/2000/svg">
<g filter="url(#filter0_b_5831_37174)">
<path d="M16.0003 10.0007C16.0003 11.5988 16.0003 16.6673 16.0003 16.6673C16.0003 16.6673 11.4174 16.6673 9.33366 16.6673C5.65176 16.6673 2.66699 13.6825 2.66699 10.0007C2.66699 6.31875 5.65176 3.33398 9.33366 3.33398C13.0156 3.33398 16.0003 6.31875 16.0003 10.0007Z" fill="#57AEFF"/>
</g>
<g filter="url(#filter1_b_5831_37174)">
<ellipse cx="16.1667" cy="11.5007" rx="5.16667" ry="5.16667" fill="#57AEFF"/>
</g>
<path fill-rule="evenodd" clip-rule="evenodd" d="M14.6667 21L16.2518 19.8484L15.6463 17.985H13.687L13.0816 19.8484L14.6667 21Z" fill="#57AEFF"/>
<rect x="10.667" y="17.666" width="1.33333" height="3.33333" rx="0.666667" fill="#57AEFF"/>
<rect x="8" y="17.666" width="1.33333" height="2.66667" rx="0.666667" fill="#57AEFF"/>
<defs>
<filter id="filter0_b_5831_37174" x="-2.33301" y="-1.66602" width="23.333" height="23.334" filterUnits="userSpaceOnUse" color-interpolation-filters="sRGB">
<feFlood flood-opacity="0" result="BackgroundImageFix"/>
<feGaussianBlur in="BackgroundImageFix" stdDeviation="2.5"/>
<feComposite in2="SourceAlpha" operator="in" result="effect1_backgroundBlur_5831_37174"/>
<feBlend mode="normal" in="SourceGraphic" in2="effect1_backgroundBlur_5831_37174" result="shape"/>
</filter>
<filter id="filter1_b_5831_37174" x="7.25" y="2.58398" width="17.833" height="17.834" filterUnits="userSpaceOnUse" color-interpolation-filters="sRGB">
<feFlood flood-opacity="0" result="BackgroundImageFix"/>
<feGaussianBlur in="BackgroundImageFix" stdDeviation="1.875"/>
<feComposite in2="SourceAlpha" operator="in" result="effect1_backgroundBlur_5831_37174"/>
<feBlend mode="normal" in="SourceGraphic" in2="effect1_backgroundBlur_5831_37174" result="shape"/>
</filter>
</defs>
</svg>
