<svg width="41" height="41" viewBox="0 0 41 41" fill="none" xmlns="http://www.w3.org/2000/svg">
<rect x="0.571411" y="0.5" width="40" height="40" rx="8" fill="#FFBE0A"/>
<rect x="1.07141" y="1" width="39" height="39" rx="7.5" stroke="black" stroke-opacity="0.05"/>
<path d="M24.1214 32.4531C18.7452 32.4531 14.3901 28.2142 14.3901 22.9792C14.3901 22.4341 14.4344 21.8945 14.5284 21.3743C18.0867 21.2886 20.9449 18.4469 20.9449 14.9634C20.9449 14.6507 20.9256 14.3464 20.8813 14.0503C21.8968 13.7017 22.9869 13.5135 24.1241 13.5135C29.5003 13.5135 33.8554 17.7524 33.8554 22.9875C33.8527 28.217 29.4975 32.4531 24.1214 32.4531ZM14.5284 21.3743C14.4703 21.3771 14.4095 21.3771 14.3541 21.3771C10.7128 21.3771 7.76054 18.505 7.76054 14.9634C7.76054 11.4217 10.7129 8.54688 14.3514 8.54688C17.6744 8.54688 20.422 10.9403 20.8785 14.0475C17.5997 15.1764 15.1289 17.9655 14.5284 21.3743ZM9.1606 26.0007C10.1927 26.0007 11.031 26.8141 11.031 27.8213C11.031 28.8257 10.1954 29.6419 9.1606 29.6419C8.12854 29.6419 7.29016 28.8285 7.29016 27.8213C7.29016 26.8169 8.12577 26.0007 9.1606 26.0007Z" fill="white"/>
</svg>
