<svg width="41" height="41" viewBox="0 0 41 41" fill="none" xmlns="http://www.w3.org/2000/svg">
<rect x="0.150757" y="0.5" width="40" height="40" rx="13.3333" fill="#FF004F"/>
<rect x="0.98409" y="1.33333" width="38.3333" height="38.3333" rx="12.5" stroke="black" stroke-opacity="0.05" stroke-width="1.66667"/>
<path fill-rule="evenodd" clip-rule="evenodd" d="M17.769 9.95798C18.667 10.3359 19.4829 10.8848 20.1712 11.5738C21.5769 10.1895 23.4712 9.41276 25.4455 9.41276C27.4386 9.41276 29.35 10.2043 30.7596 11.6133H30.7635C32.1733 13.0233 32.9652 14.9355 32.9652 16.9293C32.9652 17.9334 32.7643 18.9168 32.3849 19.8258H25.2135C24.5953 19.8258 24.0187 20.1373 23.6799 20.6544L21.9399 23.3102L18.9569 16.6648C18.3495 15.3117 16.4705 15.2024 15.7102 16.4758L13.5412 20.1089C13.4208 20.3104 13.2034 20.4338 12.9687 20.4338H8.22611C8.11615 20.2284 8.01561 20.0176 7.92492 19.8021C7.54015 18.8879 7.34013 17.9065 7.33638 16.9146C7.33263 15.9227 7.52524 14.9399 7.90309 14.0228C8.28095 13.1057 8.83658 12.2724 9.53796 11.571C10.2393 10.8696 11.0726 10.314 11.9897 9.93615C12.9068 9.5583 13.8897 9.36569 14.8816 9.36944C15.8735 9.37318 16.8548 9.57321 17.769 9.95798ZM9.76481 22.4338L18.1131 30.7783C19.2495 31.9147 21.0923 31.9147 22.2306 30.7783L30.7635 22.2454C30.8989 22.11 31.0285 21.97 31.1523 21.8258H25.3035L23.4461 24.6609C22.6523 25.8724 20.8332 25.7283 20.24 24.4069L17.2633 17.7759L15.2584 21.1341C14.7772 21.9401 13.9075 22.4338 12.9687 22.4338H9.76481Z" fill="white"/>
</svg>
