<svg width="28" height="28" viewBox="0 0 28 28" fill="none" xmlns="http://www.w3.org/2000/svg">
    <g id="&#230;&#147;&#141;&#228;&#189;&#156;&#232;&#161;&#140;&#228;&#184;&#186; / &#229;&#136;&#183;&#230;&#150;&#176;">
        <path id="Subtract" fill-rule="evenodd" clip-rule="evenodd"
            d="M23.0208 7.98503V5.7375C23.0208 5.45747 23.0208 5.31746 23.0753 5.2105C23.1233 5.11642 23.1998 5.03993 23.2938 4.992C23.4008 4.9375 23.5408 4.9375 23.8208 4.9375H24.0125C24.2925 4.9375 24.4325 4.9375 24.5395 4.992C24.6336 5.03993 24.7101 5.11642 24.758 5.2105C24.8125 5.31746 24.8125 5.45747 24.8125 5.7375V12.9292C24.8125 13.2092 24.8125 13.3492 24.758 13.4562C24.7101 13.5502 24.6336 13.6267 24.5395 13.6747C24.4325 13.7292 24.2925 13.7292 24.0125 13.7292H23.7936C23.5212 13.7292 23.385 13.7292 23.2844 13.6822C23.1906 13.6384 23.1244 13.5794 23.0701 13.4912C23.012 13.3967 22.9949 13.2492 22.9609 12.9542C22.4425 8.46476 18.6283 4.97917 14 4.97917C10.5114 4.97917 7.48352 6.9598 5.98277 9.86025C5.84635 10.1239 5.77814 10.2557 5.6904 10.3234C5.60843 10.3867 5.52591 10.4183 5.42268 10.4261C5.31218 10.4345 5.1848 10.3864 4.93004 10.2903L4.74691 10.2212C4.4809 10.1208 4.34789 10.0707 4.26454 9.97335C4.19473 9.89185 4.14888 9.77499 4.14466 9.66776C4.13961 9.53974 4.19871 9.42114 4.3169 9.18396C6.0877 5.63038 9.75766 3.1875 14 3.1875C17.4696 3.1875 20.5574 4.82138 22.5363 7.36279L23.0208 7.98503ZM4.97917 20.015V22.2625C4.97917 22.5425 4.97917 22.6825 4.92467 22.7895C4.87673 22.8836 4.80024 22.9601 4.70616 23.008C4.59921 23.0625 4.45919 23.0625 4.17917 23.0625H3.9875C3.70747 23.0625 3.56746 23.0625 3.4605 23.008C3.36642 22.9601 3.28993 22.8836 3.242 22.7895C3.1875 22.6825 3.1875 22.5425 3.1875 22.2625V15.0708C3.1875 14.7908 3.1875 14.6508 3.242 14.5438C3.28993 14.4498 3.36642 14.3733 3.4605 14.3253C3.56746 14.2708 3.70747 14.2708 3.9875 14.2708H4.2064C4.47882 14.2708 4.61503 14.2708 4.71557 14.3178C4.80943 14.3616 4.8756 14.4206 4.92989 14.5088C4.98805 14.6033 5.00508 14.7508 5.03914 15.0458C5.55746 19.5352 9.37167 23.0208 14 23.0208C17.4886 23.0208 20.5165 21.0402 22.0172 18.1397C22.1537 17.8761 22.2219 17.7443 22.3096 17.6766C22.3916 17.6133 22.4741 17.5817 22.5773 17.5739C22.6878 17.5655 22.8152 17.6136 23.07 17.7097L23.2531 17.7788C23.5191 17.8792 23.6521 17.9293 23.7355 18.0267C23.8053 18.1082 23.8511 18.225 23.8553 18.3322C23.8604 18.4603 23.8013 18.5789 23.6831 18.816C21.9123 22.3696 18.2423 24.8125 14 24.8125C10.5304 24.8125 7.44261 23.1786 5.46369 20.6372L4.97917 20.015Z"
            fill="black" />
    </g>
</svg>
