<svg width="28" height="28" viewBox="0 0 28 28" fill="none" xmlns="http://www.w3.org/2000/svg">
<path fill-rule="evenodd" clip-rule="evenodd" d="M18.9584 13.9998C18.9584 11.2721 16.7278 9.0415 14 9.0415C11.2723 9.0415 9.04169 11.2721 9.04169 13.9998C9.04169 16.7276 11.2723 18.9582 14 18.9582C16.7278 18.9582 18.9584 16.7276 18.9584 13.9998ZM7.29169 13.9998C7.29169 10.3109 10.3111 7.2915 14 7.2915C17.6889 7.2915 20.7084 10.3109 20.7084 13.9998C20.7084 17.6888 17.6889 20.7082 14 20.7082C10.3111 20.7082 7.29169 17.6888 7.29169 13.9998Z" fill="#CCCCCC"/>
<path fill-rule="evenodd" clip-rule="evenodd" d="M13.4167 2H14.5833C14.7444 2 14.875 2.08694 14.875 2.19419V3.80581C14.875 3.91306 14.7444 4 14.5833 4H13.4167C13.2556 4 13.125 3.91306 13.125 3.80581V2.19419C13.125 2.08694 13.2556 2 13.4167 2Z" fill="#CCCCCC"/>
<path fill-rule="evenodd" clip-rule="evenodd" d="M13.4167 24H14.5833C14.7444 24 14.875 24.0869 14.875 24.1942V25.8058C14.875 25.9131 14.7444 26 14.5833 26H13.4167C13.2556 26 13.125 25.9131 13.125 25.8058V24.1942C13.125 24.0869 13.2556 24 13.4167 24Z" fill="#CCCCCC"/>
<path fill-rule="evenodd" clip-rule="evenodd" d="M5.10224 5.92731L5.92719 5.10235C6.0411 4.98845 6.19491 4.95759 6.27075 5.03342L7.41033 6.17301C7.48617 6.24884 7.45531 6.40266 7.34141 6.51656L6.51645 7.34152C6.40255 7.45542 6.24873 7.48628 6.1729 7.41044L5.03331 6.27086C4.95747 6.19502 4.98833 6.04121 5.10224 5.92731Z" fill="#CCCCCC"/>
<path fill-rule="evenodd" clip-rule="evenodd" d="M20.6586 21.4837L21.4835 20.6587C21.5974 20.5448 21.7512 20.514 21.8271 20.5898L22.9667 21.7294C23.0425 21.8052 23.0116 21.9591 22.8977 22.073L22.0728 22.8979C21.9589 23.0118 21.8051 23.0427 21.7292 22.9668L20.5896 21.8273C20.5138 21.7514 20.5447 21.5976 20.6586 21.4837Z" fill="#CCCCCC"/>
<path fill-rule="evenodd" clip-rule="evenodd" d="M2 14.5833V13.4167C2 13.2556 2.08694 13.125 2.19419 13.125H3.80581C3.91306 13.125 4 13.2556 4 13.4167V14.5833C4 14.7444 3.91306 14.875 3.80581 14.875H2.19419C2.08694 14.875 2 14.7444 2 14.5833Z" fill="#CCCCCC"/>
<path fill-rule="evenodd" clip-rule="evenodd" d="M24 14.5833V13.4167C24 13.2556 24.0869 13.125 24.1942 13.125H25.8058C25.9131 13.125 26 13.2556 26 13.4167V14.5833C26 14.7444 25.9131 14.875 25.8058 14.875H24.1942C24.0869 14.875 24 14.7444 24 14.5833Z" fill="#CCCCCC"/>
<path fill-rule="evenodd" clip-rule="evenodd" d="M5.18242 22.1604L4.43251 21.2666C4.32896 21.1432 4.31163 20.9873 4.39379 20.9184L5.62836 19.8825C5.71051 19.8135 5.86105 19.8577 5.96459 19.9811L6.71451 20.8748C6.81806 20.9982 6.83539 21.1541 6.75323 21.223L5.51866 22.259C5.43651 22.3279 5.28597 22.2838 5.18242 22.1604Z" fill="#CCCCCC"/>
<path fill-rule="evenodd" clip-rule="evenodd" d="M22.0354 8.019L21.2855 7.12528C21.1819 7.00189 21.1646 6.84597 21.2468 6.77703L22.4813 5.7411C22.5635 5.67216 22.714 5.71631 22.8176 5.83971L23.5675 6.73343C23.671 6.85682 23.6884 7.01274 23.6062 7.08168L22.3716 8.11761C22.2895 8.18655 22.1389 8.1424 22.0354 8.019Z" fill="#CCCCCC"/>
</svg>
