<svg width="41" height="41" viewBox="0 0 41 41" fill="none" xmlns="http://www.w3.org/2000/svg">
<path d="M0.309448 8.5C0.309448 4.08172 3.89117 0.5 8.30945 0.5H32.3094C36.7277 0.5 40.3094 4.08172 40.3094 8.5V32.5C40.3094 36.9183 36.7277 40.5 32.3094 40.5H8.30945C3.89117 40.5 0.309448 36.9183 0.309448 32.5V8.5Z" fill="#4B50F3"/>
<path d="M0.809448 8.5C0.809448 4.35786 4.16731 1 8.30945 1H32.3094C36.4516 1 39.8094 4.35786 39.8094 8.5V32.5C39.8094 36.6421 36.4516 40 32.3094 40H8.30945C4.16731 40 0.809448 36.6421 0.809448 32.5V8.5Z" stroke="black" stroke-opacity="0.05"/>
<path d="M9.10949 20.211C9.10949 14.8545 12.3916 10.3055 16.9485 8.6803C17.0379 8.64001 17.1346 8.61926 17.2324 8.61939C17.3285 8.62091 17.4235 8.64179 17.5118 8.68085C17.6001 8.7199 17.68 8.77637 17.747 8.84701C17.8139 8.91766 17.8666 9.0011 17.902 9.09258C17.9375 9.18406 17.9549 9.28177 17.9534 9.38015C17.9537 9.51054 17.9219 9.6389 17.8609 9.7534C17.3147 11.144 17.0351 12.6289 17.0372 14.1275C17.0372 20.4274 21.878 25.535 27.8466 25.535C28.4891 25.535 29.1189 25.4767 29.7297 25.3639C29.8226 25.3408 29.9191 25.3369 30.0135 25.3526C30.1079 25.3682 30.1983 25.403 30.2793 25.455C30.3603 25.5069 30.4304 25.5749 30.4853 25.655C30.5402 25.7351 30.5788 25.8256 30.599 25.9212C30.6227 26.0207 30.6269 26.1241 30.6115 26.2253C30.5961 26.3265 30.5612 26.4235 30.509 26.5109C28.4042 30.1657 24.6659 32.3897 20.6412 32.3806C14.2721 32.3806 9.10949 26.9321 9.10949 20.211Z" fill="white"/>
</svg>
