<svg width="24" height="24" viewBox="0 0 24 24" fill="none" xmlns="http://www.w3.org/2000/svg">
<path fill-rule="evenodd" clip-rule="evenodd" d="M3.90699 5.73153C3.79599 5.67786 3.66699 5.75553 3.66699 5.87886V7.91886C3.66699 8.04586 3.73899 8.16453 3.85299 8.22053C9.26632 10.8719 14.68 6.43019 20.0933 9.03453C20.2043 9.08786 20.3337 9.01053 20.3337 8.88686V6.84686C20.3337 6.71986 20.2613 6.60119 20.1473 6.54553C14.734 3.89419 9.32066 8.33586 3.90699 5.73153Z" fill="#57AEFF"/>
<path fill-rule="evenodd" clip-rule="evenodd" d="M3.90699 10.3995C3.79599 10.3458 3.66699 10.4235 3.66699 10.5468V12.5868C3.66699 12.7138 3.73899 12.8325 3.85299 12.8885C9.26632 15.5398 14.68 11.0982 20.0933 13.7025C20.2043 13.7558 20.3337 13.6785 20.3337 13.5548V11.5148C20.3337 11.3878 20.2613 11.2692 20.1473 11.2135C14.734 8.56216 9.32066 13.0038 3.90699 10.3995Z" fill="#57AEFF"/>
<path fill-rule="evenodd" clip-rule="evenodd" d="M3.90699 15.0655C3.79599 15.0118 3.66699 15.0895 3.66699 15.2128V17.2528C3.66699 17.3798 3.73899 17.4985 3.85299 17.5545C9.26632 20.2058 14.68 15.7642 20.0933 18.3685C20.2043 18.4218 20.3337 18.3445 20.3337 18.2208V16.1808C20.3337 16.0538 20.2613 15.9352 20.1473 15.8795C14.734 13.2282 9.32066 17.6698 3.90699 15.0655Z" fill="#57AEFF"/>
</svg>
