<svg width="12" height="13" viewBox="0 0 12 13" fill="none" xmlns="http://www.w3.org/2000/svg">
<path d="M5.03364 7.96072C5.10159 7.94907 5.16425 7.91663 5.21299 7.86789L11.9024 1.17851C12.0325 1.04834 12.0325 0.837281 11.9024 0.707107L11.431 0.235702C11.3008 0.105528 11.0897 0.105527 10.9596 0.235702L4.27018 6.92509C4.22143 6.97383 4.189 7.03648 4.17735 7.10442L4.03189 7.95218C4.01632 8.04288 4.09514 8.1217 4.18584 8.10614L5.03364 7.96072Z" fill="#3C3C43" fill-opacity="0.6"/>
<path d="M6.33333 0.138021C6.51743 0.138021 6.66667 0.28726 6.66667 0.471354V1.13802C6.66667 1.32212 6.51743 1.47135 6.33333 1.47135H2C1.63181 1.47135 1.33333 1.76983 1.33333 2.13802V10.138C1.33333 10.5062 1.63181 10.8047 2 10.8047H10C10.3682 10.8047 10.6667 10.5062 10.6667 10.138V5.80469C10.6667 5.62059 10.8159 5.47135 11 5.47135H11.6667C11.8508 5.47135 12 5.62059 12 5.80469V10.4714C12 11.3918 11.2538 12.138 10.3333 12.138H1.66667C0.746192 12.138 0 11.3918 0 10.4714V1.80469C0 0.884213 0.746191 0.138021 1.66667 0.138021H6.33333Z" fill="#3C3C43" fill-opacity="0.6"/>
</svg>
