<svg width="45" height="45" viewBox="0 0 45 45" fill="none" xmlns="http://www.w3.org/2000/svg">
    <path d="M25.9641 4.32326C24.4839 1.6727 21.7277 1.49142 20.0786 3.79878L19.7372 4.3303L1.49303 37.1332C0.01991 39.7837 1.28007 42.3463 4.06791 42.6613L4.64519 42.6965L41.0877 42.8074C44.0745 42.8197 45.625 40.4385 44.5092 37.8037L44.2505 37.2757L25.9641 4.32854V4.32326Z" fill="#FF7024"/>
    <path d="M20.0065 17.2031C19.8336 15.5059 21.1656 14.0312 22.8716 14.0312C24.5775 14.0312 25.9096 15.5059 25.7366 17.2031L24.3765 30.5515C24.2978 31.3235 23.6476 31.9108 22.8716 31.9108C22.0955 31.9108 21.4454 31.3235 21.3667 30.5515L20.0065 17.2031Z" fill="white"/>
    <circle cx="22.8717" cy="35.2095" r="1.82185" fill="white"/>
</svg>