<svg width="25" height="24" viewBox="0 0 25 24" fill="none" xmlns="http://www.w3.org/2000/svg">
<path fill-rule="evenodd" clip-rule="evenodd" d="M12.5215 1C6.44635 1 1.52148 5.92487 1.52148 12C1.52148 18.0751 6.44635 23 12.5215 23C18.5966 23 23.5215 18.0751 23.5215 12C23.5215 5.92487 18.5966 1 12.5215 1Z" fill="#206CFF"/>
<path d="M6.7729 13.0614C6.51255 12.8011 6.51255 12.379 6.7729 12.1186L7.30633 11.5852C7.56668 11.3248 7.98879 11.3248 8.24914 11.5852L10.7301 14.0662L16.7964 7.99995C17.0567 7.7396 17.4788 7.7396 17.7392 7.99995L18.2726 8.53338C18.5329 8.79373 18.5329 9.21584 18.2726 9.47619L11.7442 16.0046L11.7351 16.0139L11.2016 16.5473C10.9413 16.8077 10.5192 16.8077 10.2588 16.5473L6.7729 13.0614Z" fill="white"/>
</svg>
