<svg width="28" height="28" viewBox="0 0 28 28" fill="none" xmlns="http://www.w3.org/2000/svg">
<path fill-rule="evenodd" clip-rule="evenodd" d="M18.1729 19.0439L18.1583 19.0293L17.2274 18.3311C17.1219 18.2146 17.1243 18.0596 17.2346 17.9449C18.3467 16.9522 18.9584 15.474 18.9584 14.0002C18.9584 12.5264 18.3467 11.0481 17.2346 10.0555C17.1243 9.94074 17.1219 9.78572 17.2274 9.66923L18.1583 8.97108L18.1729 8.95642C18.2924 8.83699 18.4575 8.83718 18.5769 8.95661L18.5863 8.96518C19.9224 10.19 20.7084 11.977 20.7084 14.0002C20.7084 16.0234 19.9223 17.8101 18.5861 19.035L18.5771 19.0439C18.4577 19.1634 18.2924 19.1634 18.1729 19.0439Z" fill="#333333"/>
<path fill-rule="evenodd" clip-rule="evenodd" d="M8.78053 9.91675H5.25V18.0834H8.78053L12.25 20.859V7.14117L8.78053 9.91675ZM12.25 4.90008C12.4833 4.78341 12.7167 4.66675 12.95 4.66675C13.4167 4.66675 14 5.13341 14 5.71675V22.2834C14 22.8667 13.4167 23.3334 12.95 23.3334C12.7167 23.3334 12.4833 23.2167 12.25 23.1001L8.16667 19.8334H4.66667C3.96667 19.8334 3.5 19.3667 3.5 18.6667V9.33341C3.5 8.63341 3.96667 8.16675 4.66667 8.16675H8.16667L12.25 4.90008Z" fill="#333333"/>
</svg>
