<svg width="18" height="20" viewBox="0 0 18 20" fill="none" xmlns="http://www.w3.org/2000/svg">
<path fill-rule="evenodd" clip-rule="evenodd" d="M8.64276 2.09883C8.36661 2.09883 8.14276 1.87497 8.14276 1.59883V0.548828C8.14276 0.272686 8.36661 0.0488281 8.64276 0.0488281H9.34276C9.6189 0.0488281 9.84276 0.272686 9.84276 0.548828V1.59883C9.84276 1.87497 9.6189 2.09883 9.34275 2.09883H8.64276ZM2.09553 6.56148C1.96672 6.80572 1.6643 6.89931 1.42005 6.77051L0.491271 6.28075C0.246997 6.15194 0.153403 5.84949 0.282228 5.60523L0.608774 4.98606C0.737587 4.74182 1.04 4.64823 1.28425 4.77703L2.21304 5.26679C2.45731 5.3956 2.55091 5.69805 2.42208 5.94231L2.09553 6.56148ZM16.5665 6.76993C16.3223 6.89873 16.0199 6.80514 15.891 6.5609L15.5645 5.94173C15.4357 5.69746 15.5293 5.39501 15.7735 5.26621L16.7012 4.77703C16.9455 4.64823 17.2479 4.74182 17.3767 4.98606L17.7032 5.60523C17.8321 5.84949 17.7385 6.15194 17.4942 6.28075L16.5665 6.76993ZM2.40096 13.1759C2.52447 13.4229 2.42435 13.7232 2.17735 13.8467L1.23877 14.316C0.991785 14.4395 0.691464 14.3394 0.567965 14.0924L0.254889 13.4663C0.131379 13.2193 0.231494 12.9189 0.478497 12.7955L1.41708 12.3262C1.66406 12.2027 1.96438 12.3028 2.08788 12.5498L2.40096 13.1759ZM15.806 13.8457C15.559 13.7222 15.4589 13.4218 15.5824 13.1748L15.8955 12.5487C16.019 12.3018 16.3193 12.2016 16.5663 12.3251L17.507 12.7955C17.754 12.9189 17.8541 13.2193 17.7306 13.4663L17.4175 14.0924C17.294 14.3394 16.9937 14.4395 16.7467 14.316L15.806 13.8457ZM6.51906 3.30859L5.478 1.50542C5.33993 1.26627 5.03413 1.18434 4.79499 1.32241L4.18877 1.67241C3.94962 1.81048 3.86769 2.11627 4.00576 2.35542L13.4355 18.6882C13.5736 18.9274 13.8794 19.0093 14.1185 18.8713L14.7247 18.5213C14.9639 18.3832 15.0458 18.0774 14.9078 17.8382L13.2586 14.9819L13.3327 14.7668C14.8326 13.5342 15.7928 11.6705 15.7928 9.58262C15.7928 5.85468 12.7392 2.84887 8.99276 2.84887C8.12088 2.84887 7.28634 3.01168 6.51906 3.30859ZM3.93413 5.0775L4.8439 6.65329L4.78936 6.7315C4.22344 7.54297 3.89276 8.52547 3.89276 9.58262C3.89276 11.2071 4.67173 12.6542 5.88894 13.5772L6.09486 13.7333L6.68575 15.4489H9.92204L10.9035 17.1489H5.47327L4.6528 14.7668C3.15288 13.5342 2.19276 11.6705 2.19276 9.58262C2.19276 7.92546 2.79652 6.41031 3.79629 5.23899L3.93413 5.0775ZM11.2211 17.8989C11.2925 17.8989 11.3586 17.937 11.3943 17.9989L11.566 18.2962C11.5835 18.3266 11.5928 18.3611 11.5928 18.3962V19.0989C11.5928 19.375 11.3689 19.5989 11.0928 19.5989H6.89276C6.61661 19.5989 6.39276 19.375 6.39276 19.0989V18.3989C6.39276 18.1227 6.61661 17.8989 6.89276 17.8989H11.2211ZM12.3361 13.384L7.38276 4.80457C7.88832 4.63876 8.42949 4.54887 8.99276 4.54887C11.8183 4.54887 14.0928 6.81144 14.0928 9.58262C14.0928 11.0978 13.415 12.4587 12.3361 13.384Z" fill="black"/>
</svg>
