<svg width="28" height="28" viewBox="0 0 28 28" fill="none" xmlns="http://www.w3.org/2000/svg">
<path fill-rule="evenodd" clip-rule="evenodd" d="M18.9584 13.9998C18.9584 11.2721 16.7278 9.0415 14 9.0415C11.2723 9.0415 9.04169 11.2721 9.04169 13.9998C9.04169 16.7276 11.2723 18.9582 14 18.9582C16.7278 18.9582 18.9584 16.7276 18.9584 13.9998ZM7.29169 13.9998C7.29169 10.3109 10.3111 7.2915 14 7.2915C17.6889 7.2915 20.7084 10.3109 20.7084 13.9998C20.7084 17.6888 17.6889 20.7082 14 20.7082C10.3111 20.7082 7.29169 17.6888 7.29169 13.9998Z" fill="#333333"/>
<path fill-rule="evenodd" clip-rule="evenodd" d="M13.3333 2H14.6667C14.8508 2 15 2.13041 15 2.29129V4.70871C15 4.86959 14.8508 5 14.6667 5H13.3333C13.1492 5 13 4.86959 13 4.70871V2.29129C13 2.13041 13.1492 2 13.3333 2Z" fill="#333333"/>
<path fill-rule="evenodd" clip-rule="evenodd" d="M13.3333 23H14.6667C14.8508 23 15 23.1304 15 23.2913V25.7087C15 25.8696 14.8508 26 14.6667 26H13.3333C13.1492 26 13 25.8696 13 25.7087V23.2913C13 23.1304 13.1492 23 13.3333 23Z" fill="#333333"/>
<path fill-rule="evenodd" clip-rule="evenodd" d="M5.04332 5.98622L5.98613 5.04341C6.1163 4.91324 6.31405 4.89993 6.4278 5.01368L8.13718 6.72306C8.25093 6.83681 8.23762 7.03456 8.10745 7.16473L7.16464 8.10754C7.03446 8.23772 6.83672 8.25103 6.72297 8.13727L5.01359 6.4279C4.89983 6.31414 4.91314 6.1164 5.04332 5.98622Z" fill="#333333"/>
<path fill-rule="evenodd" clip-rule="evenodd" d="M19.8926 20.8356L20.8354 19.8928C20.9655 19.7626 21.1633 19.7493 21.277 19.863L22.9864 21.5724C23.1002 21.6862 23.0869 21.8839 22.9567 22.0141L22.0139 22.9569C21.8837 23.0871 21.686 23.1004 21.5722 22.9866L19.8628 21.2773C19.7491 21.1635 19.7624 20.9658 19.8926 20.8356Z" fill="#333333"/>
<path fill-rule="evenodd" clip-rule="evenodd" d="M2 14.6667V13.3333C2 13.1492 2.13041 13 2.29129 13H4.70871C4.86959 13 5 13.1492 5 13.3333V14.6667C5 14.8508 4.86959 15 4.70871 15H2.29129C2.13041 15 2 14.8508 2 14.6667Z" fill="#333333"/>
<path fill-rule="evenodd" clip-rule="evenodd" d="M23 14.6667V13.3333C23 13.1492 23.1304 13 23.2913 13H25.7087C25.8696 13 26 13.1492 26 13.3333V14.6667C26 14.8508 25.8696 15 25.7087 15H23.2913C23.1304 15 23 14.8508 23 14.6667Z" fill="#333333"/>
<path fill-rule="evenodd" clip-rule="evenodd" d="M5.23599 22.2241L4.37894 21.2028C4.26061 21.0617 4.26458 20.8636 4.38782 20.7602L6.23968 19.2063C6.36291 19.1029 6.55874 19.1334 6.67708 19.2744L7.53413 20.2958C7.65246 20.4368 7.64849 20.635 7.52525 20.7384L5.6734 22.2923C5.55016 22.3957 5.35433 22.3652 5.23599 22.2241Z" fill="#333333"/>
<path fill-rule="evenodd" clip-rule="evenodd" d="M21.3229 8.72561L20.4659 7.70422C20.3475 7.56319 20.3515 7.36504 20.4747 7.26163L22.3266 5.70774C22.4498 5.60433 22.6457 5.63483 22.764 5.77585L23.621 6.79725C23.7394 6.93827 23.7354 7.13642 23.6122 7.23983L21.7603 8.79372C21.6371 8.89713 21.4412 8.86663 21.3229 8.72561Z" fill="#333333"/>
</svg>
