<svg width="24" height="24" viewBox="0 0 24 24" fill="none" xmlns="http://www.w3.org/2000/svg">
<path fill-rule="evenodd" clip-rule="evenodd" d="M12.9751 18.4212C12.7359 18.2832 12.4301 18.3651 12.2921 18.6043L12.1418 18.8646L11.9915 18.6042C11.8534 18.3651 11.5476 18.2832 11.3085 18.4212C11.0693 18.5593 10.9874 18.8651 11.1254 19.1042L11.2757 19.3646L10.9751 19.3646C10.699 19.3646 10.4751 19.5884 10.4751 19.8646C10.4751 20.1407 10.699 20.3646 10.9751 20.3646L11.2758 20.3646L11.1254 20.625C10.9873 20.8641 11.0693 21.1699 11.3084 21.308C11.5476 21.4461 11.8534 21.3641 11.9914 21.125L12.1418 20.8646L12.2921 21.125C12.4302 21.3641 12.736 21.4461 12.9751 21.308C13.2143 21.1699 13.2962 20.8641 13.1581 20.625L13.0078 20.3646L13.3084 20.3646C13.5846 20.3646 13.8084 20.1407 13.8084 19.8646C13.8084 19.5884 13.5846 19.3646 13.3084 19.3646L13.0078 19.3646L13.1581 19.1043C13.2962 18.8651 13.2142 18.5593 12.9751 18.4212Z" fill="#57AEFF"/>
<path fill-rule="evenodd" clip-rule="evenodd" d="M16.6992 18.167C16.5409 18.0756 16.3384 18.1298 16.247 18.2881L16.1323 18.4868L16.0481 18.3325C15.9538 18.1595 15.734 18.1005 15.5657 18.203C15.4086 18.2988 15.3543 18.5011 15.4424 18.6627L15.5425 18.8463L15.3334 18.8515C15.1494 18.856 15.0014 19.0041 14.997 19.1881C14.9923 19.3851 15.1533 19.546 15.3503 19.5412L15.526 19.5369L15.4113 19.7355C15.3199 19.8938 15.3742 20.0963 15.5325 20.1877C15.6908 20.2791 15.8933 20.2249 15.9847 20.0665L16.0994 19.8678L16.1836 20.0222C16.2779 20.1952 16.4977 20.2542 16.666 20.1517C16.8231 20.0559 16.8774 19.8536 16.7893 19.692L16.6892 19.5084L16.8983 19.5033C17.0823 19.4988 17.2303 19.3506 17.2347 19.1666C17.2394 18.9696 17.0784 18.8088 16.8814 18.8136L16.7056 18.8179L16.8203 18.6192C16.9118 18.4608 16.8575 18.2584 16.6992 18.167Z" fill="#57AEFF"/>
<path fill-rule="evenodd" clip-rule="evenodd" d="M8.69918 18.167C8.54085 18.0756 8.3384 18.1298 8.24699 18.2881L8.13228 18.4868L8.04813 18.3325C7.95381 18.1595 7.73399 18.1005 7.56573 18.203C7.40858 18.2988 7.3543 18.5011 7.4424 18.6627L7.54252 18.8463L7.33343 18.8515C7.14944 18.856 7.00139 19.0041 6.99701 19.1881C6.99232 19.3851 7.15332 19.546 7.3503 19.5412L7.52604 19.5369L7.41135 19.7355C7.31994 19.8938 7.37419 20.0963 7.53251 20.1877C7.69084 20.2791 7.8933 20.2249 7.98471 20.0665L8.09942 19.8678L8.18359 20.0222C8.27791 20.1952 8.49773 20.2542 8.66599 20.1517C8.82314 20.0559 8.87742 19.8536 8.78932 19.692L8.68923 19.5084L8.89827 19.5033C9.08226 19.4988 9.23031 19.3506 9.23469 19.1666C9.23938 18.9696 9.07839 18.8088 8.8814 18.8136L8.70561 18.8179L8.82035 18.6192C8.91176 18.4608 8.85751 18.2584 8.69918 18.167Z" fill="#57AEFF"/>
<path opacity="0.955418" d="M16.0003 10.0007C16.0003 11.5988 16.0003 16.6673 16.0003 16.6673C16.0003 16.6673 11.4174 16.6673 9.33366 16.6673C5.65176 16.6673 2.66699 13.6825 2.66699 10.0007C2.66699 6.31875 5.65176 3.33398 9.33366 3.33398C13.0156 3.33398 16.0003 6.31875 16.0003 10.0007Z" fill="#57AEFF"/>
<g filter="url(#filter0_b_5831_37173)">
<ellipse cx="16.1667" cy="11.5007" rx="5.16667" ry="5.16667" fill="#57AEFF"/>
</g>
<defs>
<filter id="filter0_b_5831_37173" x="7.25" y="2.58398" width="17.833" height="17.834" filterUnits="userSpaceOnUse" color-interpolation-filters="sRGB">
<feFlood flood-opacity="0" result="BackgroundImageFix"/>
<feGaussianBlur in="BackgroundImageFix" stdDeviation="1.875"/>
<feComposite in2="SourceAlpha" operator="in" result="effect1_backgroundBlur_5831_37173"/>
<feBlend mode="normal" in="SourceGraphic" in2="effect1_backgroundBlur_5831_37173" result="shape"/>
</filter>
</defs>
</svg>
