<svg width="24" height="24" viewBox="0 0 24 24" fill="none" xmlns="http://www.w3.org/2000/svg">
<path fill-rule="evenodd" clip-rule="evenodd" d="M14.3337 7.33268C14.3337 8.69255 13.3158 9.81468 12.0003 9.97872V9.99935H11.6686L11.667 9.99935L11.6654 9.99935H3.33366V7.99935H9.08434C9.02949 7.78627 9.00033 7.56288 9.00033 7.33268C9.00033 5.85992 10.1942 4.66602 11.667 4.66602C13.1398 4.66602 14.3337 5.85992 14.3337 7.33268ZM13.0003 14.666H4.00033V16.666H10.6906C10.675 16.7749 10.667 16.8862 10.667 16.9993C10.667 18.288 11.7117 19.3327 13.0003 19.3327C14.289 19.3327 15.3337 18.288 15.3337 16.9993C15.3337 15.8239 14.4644 14.8514 13.3337 14.6896V14.666H13.0003ZM19.0003 13.3279C20.4876 13.2416 21.667 12.0082 21.667 10.4993C21.667 8.93454 20.3985 7.66602 18.8337 7.66602C17.2689 7.66602 16.0003 8.93454 16.0003 10.4993C16.0003 10.7894 16.0439 11.0692 16.1249 11.3327H2.66699V13.3327H18.8337H19.0003V13.3279Z" fill="#57AEFF"/>
</svg>
