<svg width="25" height="25" viewBox="0 0 25 25" fill="none" xmlns="http://www.w3.org/2000/svg">
<path fill-rule="evenodd" clip-rule="evenodd" d="M10.8494 17.3336C10.8554 17.328 10.8614 17.3222 10.8673 17.3163L12.0232 16.1604L12.0232 16.1604L20.3858 7.79785C20.6461 7.5375 20.6461 7.11539 20.3858 6.85504L19.7013 6.17054C19.4409 5.91019 19.0188 5.91019 18.7585 6.17054L10.3959 14.5331L7.38018 11.5174C7.11984 11.2571 6.69773 11.2571 6.43738 11.5174L5.75287 12.2019C5.49252 12.4623 5.49252 12.8844 5.75287 13.1447L8.76857 16.1604L8.76856 16.1604L9.92447 17.3163C10.0221 17.414 10.1425 17.475 10.2686 17.4994C10.471 17.5386 10.6882 17.4834 10.8494 17.3336Z" fill="#206CFF"/>
</svg>
