<svg width="45" height="44" viewBox="0 0 45 44" fill="none" xmlns="http://www.w3.org/2000/svg">
    <path d="M25.9641 3.82326C24.4839 1.1727 21.7277 0.99142 20.0786 3.29878L19.7372 3.8303L1.49303 36.6332C0.01991 39.2837 1.28007 41.8463 4.06791 42.1613L4.64519 42.1965L41.0877 42.3074C44.0745 42.3197 45.625 39.9385 44.5092 37.3037L44.2505 36.7757L25.9641 3.82854V3.82326Z" fill="#E42D22"/>
    <path d="M20.0065 16.7031C19.8336 15.0059 21.1656 13.5312 22.8716 13.5312C24.5775 13.5312 25.9096 15.0059 25.7366 16.7031L24.3765 30.0515C24.2978 30.8235 23.6476 31.4108 22.8716 31.4108C22.0955 31.4108 21.4454 30.8235 21.3667 30.0515L20.0065 16.7031Z" fill="white"/>
    <circle cx="22.8717" cy="34.7095" r="1.82185" fill="white"/>
</svg>
