<svg width="24" height="24" viewBox="0 0 24 24" fill="none" xmlns="http://www.w3.org/2000/svg">
<path d="M8.72044 18.6878L10.6701 16.3689C10.8579 16.1422 10.8903 16.0904 10.968 15.8508L11.1105 15.4103L10.0677 14.1019L9.75032 15.5658L7.82657 17.8458C7.21771 18.5777 8.22169 19.2902 8.72044 18.6878ZM13.4618 18.4934C13.8634 19.3032 15.0552 18.8044 14.6212 17.9235L13.2999 15.2484C13.1962 15.0475 13.0602 14.8273 12.9371 14.6524L12.1016 13.4671L12.1599 13.2923C12.3801 12.6186 12.4643 12.217 12.5161 11.5498L12.6457 9.6779C12.7104 8.79052 12.1858 8.11688 11.2725 8.11688C10.5924 8.11688 10.126 8.46018 9.49771 9.07552L8.50669 10.0536C8.18282 10.371 8.07919 10.6301 8.0468 11.0511L7.93021 12.5797C7.89782 12.9684 8.11157 13.2404 8.46782 13.2534C8.83055 13.2793 9.05077 13.0655 9.08316 12.651L9.23214 10.9734L9.70498 10.5459C9.87987 10.3904 10.1001 10.494 10.0936 10.6689L9.98998 12.0874C9.93169 12.8064 10.1001 13.1497 10.5924 13.765L11.9073 15.4103C12.0368 15.5787 12.0498 15.6435 12.108 15.7471L13.4618 18.4934ZM15.7159 10.643H14.2196L13.2804 9.60018L13.1703 11.1612L13.546 11.5369C13.7533 11.7442 13.9346 11.8089 14.3233 11.8089H15.7159C16.1046 11.8089 16.3636 11.5887 16.3636 11.226C16.3636 10.8762 16.0981 10.643 15.7159 10.643ZM11.9979 7.53393C12.7752 7.53393 13.4035 6.89916 13.4035 6.12189C13.4035 5.33813 12.7752 4.70984 11.9979 4.70984C11.2142 4.70984 10.5859 5.33813 10.5859 6.12189C10.5859 6.89916 11.2142 7.53393 11.9979 7.53393Z" fill="black"/>
</svg>
