<svg width="18" height="20" viewBox="0 0 18 20" fill="none" xmlns="http://www.w3.org/2000/svg">
    <path fill-rule="evenodd" clip-rule="evenodd"
        d="M8.15057 0.549805C8.15057 0.273662 8.37443 0.0498047 8.65057 0.0498047H9.35057C9.62671 0.0498047 9.85057 0.273662 9.85057 0.549805V1.5998C9.85057 1.87595 9.62671 2.0998 9.35057 2.0998H8.65057C8.37443 2.0998 8.15057 1.87595 8.15057 1.5998V0.549805ZM0.499084 6.28173C0.25481 6.15292 0.161215 5.85047 0.29004 5.6062L0.616587 4.98704C0.7454 4.74279 1.04782 4.64921 1.29207 4.77801L2.22085 5.26777C2.46512 5.39658 2.55872 5.69902 2.42989 5.94329L2.10335 6.56246C1.97453 6.8067 1.67212 6.90028 1.42787 6.77149L0.499084 6.28173ZM16.5743 6.7709C16.3301 6.8997 16.0277 6.80612 15.8989 6.56187L15.5723 5.94271C15.4435 5.69844 15.5371 5.39599 15.7814 5.26718L16.709 4.77801C16.9533 4.64921 17.2557 4.74279 17.3845 4.98704L17.7111 5.6062C17.8399 5.85047 17.7463 6.15292 17.502 6.28173L16.5743 6.7709ZM1.24658 14.317C0.999598 14.4404 0.699277 14.3403 0.575777 14.0934L0.262702 13.4673C0.139191 13.2203 0.239306 12.9199 0.486309 12.7964L1.42489 12.3272C1.67188 12.2037 1.9722 12.3038 2.0957 12.5508L2.40877 13.1768C2.53228 13.4238 2.43217 13.7242 2.18516 13.8477L1.24658 14.317ZM15.8138 13.8466C15.5668 13.7231 15.4667 13.4228 15.5902 13.1758L15.9033 12.5497C16.0268 12.3027 16.3271 12.2026 16.5741 12.3261L17.5148 12.7964C17.7618 12.9199 17.8619 13.2203 17.7384 13.4673L17.4253 14.0934C17.3018 14.3403 17.0015 14.4404 16.7545 14.317L15.8138 13.8466ZM6.10267 13.7343L6.69356 15.4498H11.3076L11.8985 13.7343L12.1044 13.5782C13.3216 12.6552 14.1006 11.208 14.1006 9.5836C14.1006 6.81242 11.8262 4.54984 9.00057 4.54984C6.17498 4.54984 3.90057 6.81242 3.90057 9.5836C3.90057 11.208 4.67955 12.6552 5.89675 13.5782L6.10267 13.7343ZM12.6362 16.8127C12.5667 17.0144 12.3768 17.1498 12.1634 17.1498H5.83769C5.62431 17.1498 5.43444 17.0144 5.36495 16.8127L4.66061 14.7678C3.16069 13.5351 2.20057 11.6714 2.20057 9.5836C2.20057 5.85565 5.25408 2.84984 9.00057 2.84984C12.7471 2.84984 15.8006 5.85565 15.8006 9.5836C15.8006 11.6714 14.8404 13.5351 13.3405 14.7678L12.6362 16.8127ZM6.90057 19.5998C6.62443 19.5998 6.40057 19.376 6.40057 19.0998V18.3998C6.40057 18.1237 6.62443 17.8998 6.90057 17.8998H11.1006C11.3767 17.8998 11.6006 18.1237 11.6006 18.3998V19.0998C11.6006 19.376 11.3767 19.5998 11.1006 19.5998H6.90057Z"
        fill="black" />
</svg>
