<svg width="24" height="24" viewBox="0 0 24 24" fill="none" xmlns="http://www.w3.org/2000/svg">
<path fill-rule="evenodd" clip-rule="evenodd" d="M9.78005 17.1216C9.78611 17.116 9.79209 17.1102 9.79798 17.1043L10.9539 15.9484L10.9539 15.9484L19.3165 7.58582C19.5768 7.32547 19.5768 6.90336 19.3165 6.64301L18.632 5.9585C18.3716 5.69815 17.9495 5.69815 17.6892 5.9585L9.32657 14.3211L6.31088 11.3054C6.05053 11.045 5.62842 11.045 5.36807 11.3054L4.68357 11.9899C4.42322 12.2502 4.42322 12.6724 4.68356 12.9327L7.69926 15.9484L7.69926 15.9484L8.85517 17.1043C8.9528 17.2019 9.07318 17.263 9.19925 17.2874C9.40174 17.3266 9.61891 17.2713 9.78005 17.1216Z" fill="#1368FB"/>
</svg>
