<svg width="24" height="24" viewBox="0 0 24 24" fill="none" xmlns="http://www.w3.org/2000/svg">
<path fill-rule="evenodd" clip-rule="evenodd" d="M17.5 5C18.3 5 19 5.7 19 6.5C19 7.3 18.3 8 17.5 8C16.7 8 16 7.3 16 6.5C16 5.7 16.7 5 17.5 5ZM17.5 3C15.6 3 14 4.6 14 6.5C14 6.62533 14.007 6.74936 14.0205 6.87171L8.86912 9.4474C8.24087 8.86254 7.40442 8.5 6.5 8.5C4.6 8.5 3 10.1 3 12C3 13.9 4.6 15.5 6.5 15.5C7.40442 15.5 8.24087 15.1375 8.86912 14.5526L14.0205 17.1283C14.007 17.2506 14 17.3747 14 17.5C14 19.4 15.6 21 17.5 21C19.4 21 21 19.4 21 17.5C21 15.6 19.4 14 17.5 14C16.4314 14 15.4577 14.5061 14.8102 15.287L9.89643 12.8302C9.96402 12.5631 10 12.2849 10 12C10 11.7151 9.96402 11.4369 9.89643 11.1698L14.8102 8.71295C15.4577 9.49389 16.4314 10 17.5 10C19.4 10 21 8.4 21 6.5C21 4.6 19.4 3 17.5 3ZM6.5 10.5C7.3 10.5 8 11.2 8 12C8 12.8 7.3 13.5 6.5 13.5C5.7 13.5 5 12.8 5 12C5 11.2 5.7 10.5 6.5 10.5ZM19 17.5C19 16.7 18.3 16 17.5 16C16.7 16 16 16.7 16 17.5C16 18.3 16.7 19 17.5 19C18.3 19 19 18.3 19 17.5Z" fill="black"/>
</svg>
