<svg width="62" height="62" viewBox="0 0 62 62" fill="none" xmlns="http://www.w3.org/2000/svg">
<g id="&#231;&#138;&#182;&#230;&#128;&#129; /&#230;&#140;&#135;&#231;&#142;&#175;&#229;&#133;&#179;&#233;&#151;&#173;-&#229;&#184;&#184;&#230;&#128;&#129;">
<g id="Subtract">
<path d="M44.0169 13.585C44.5677 13.0342 44.5081 12.1213 43.861 11.6876C36.1008 6.48706 25.9269 6.43599 18.1665 11.546C17.5129 11.9763 17.4498 12.8941 18.0031 13.4474L20.1382 15.5824C20.5774 16.0216 21.2653 16.0802 21.7977 15.7603C27.4297 12.3774 34.5685 12.4096 40.2175 15.8841C40.7507 16.2121 41.4454 16.1565 41.8881 15.7138L44.0169 13.585Z" fill="white"/>
<path d="M46.4054 20.308C45.9671 20.7463 45.9078 21.4326 46.2262 21.9644C50.3205 28.8032 49.426 37.7546 43.5903 43.5903C36.698 50.4826 25.4596 50.4825 18.4886 43.5114C12.5696 37.5925 11.6762 28.5972 15.7603 21.7978C16.0801 21.2653 16.0216 20.5774 15.5824 20.1382L13.4474 18.0031C12.8941 17.4498 11.9762 17.513 11.5459 18.1666C5.61344 27.1762 6.63726 39.4388 14.5992 47.4008C23.7007 56.5022 38.4217 56.5375 47.4796 47.4796C55.3805 39.5788 56.3628 27.3692 50.4447 18.3386C50.015 17.6829 49.0952 17.6182 48.5408 18.1726L46.4054 20.308Z" fill="white"/>
</g>
</g>
</svg>
