<svg width="28" height="28" viewBox="0 0 28 28" fill="none" xmlns="http://www.w3.org/2000/svg">
<path fill-rule="evenodd" clip-rule="evenodd" d="M20.7182 12.9907C21.5306 11.6877 22 10.1487 22 8.5C22 3.80558 18.1944 0 13.5 0C8.80558 0 5 3.80558 5 8.5C5 11.1416 6.20503 13.5018 8.09538 15.0608C8.10489 15.0452 8.11474 15.0297 8.12493 15.0144C8.97113 13.7452 11.0865 14.1683 11.5097 16.2837V6.12981C11.5097 5.56571 11.8481 4.4375 13.2021 4.4375C14.556 4.4375 14.8945 5.56571 14.8945 6.12981V11.2067C15.0355 10.9247 15.4868 10.3606 16.1638 10.3606C16.6252 10.3606 16.9818 10.6226 17.2067 10.8788C17.3801 11.0763 17.4331 11.3435 17.4331 11.6063V12.899C17.4331 12.476 17.6869 11.6298 18.7024 11.6298C19.7178 11.6298 19.9717 12.476 19.9717 12.899V14.0109C19.9758 14.0061 19.9799 14.0013 19.984 13.9965C20.0311 13.6527 20.2233 13.1859 20.7182 12.9907Z" fill="#767680" fill-opacity="0.12"/>
<path d="M11.5096 17.5529V16.2837M14.8944 15.4375V11.2067M14.8944 11.2067V6.12981C14.8944 5.56571 14.556 4.4375 13.202 4.4375C11.8481 4.4375 11.5096 5.56571 11.5096 6.12981V16.2837M14.8944 11.2067C15.0355 10.9247 15.4868 10.3606 16.1637 10.3606C16.6252 10.3606 16.9817 10.6226 17.2067 10.8788C17.38 11.0763 17.433 11.3435 17.433 11.6063V12.899M17.433 15.8606V12.899M17.433 12.899C17.433 12.476 17.6869 11.6298 18.7023 11.6298C19.7178 11.6298 19.9716 12.476 19.9716 12.899V14.1683M19.9716 16.7067V14.1683M19.9716 14.1683C19.9716 13.7452 20.2255 12.899 21.241 12.899C22.2564 12.899 22.5103 13.7452 22.5103 14.1683L22.5102 21C22.5 23.1394 20.9871 26.4375 16.5868 26.4375C12.0701 26.4375 10.567 23.7589 9.99234 21.9761C9.86143 21.57 9.73285 21.1635 9.56477 20.7714L8.548 18.399C8.26593 17.8349 7.44794 16.0298 8.1249 15.0144C8.9711 13.7452 11.0865 14.1683 11.5096 16.2837" stroke="#333333" stroke-width="1.5" stroke-linecap="round"/>
</svg>
