<svg width="20" height="26" viewBox="0 0 20 26" fill="none" xmlns="http://www.w3.org/2000/svg">
<path d="M6.13616 20.3055L6.13478 20.3041C3.79846 17.9183 2.6511 15.987 2.08017 14.3677C1.50968 12.7497 1.5 11.4064 1.5 10.1358C1.5 5.32763 5.32435 1.51557 10 1.50014C14.6756 1.51557 18.5 5.32776 18.5 10.1359C18.5 11.4065 18.4903 12.7498 17.9198 14.3678C17.3489 15.9872 16.2015 17.9184 13.8652 20.3043L13.8638 20.3057L10 24.2826L6.13616 20.3055Z" fill="#1B8862" stroke="#48AD84" style="fill:#1B8862;fill:color(display-p3 0.1068 0.5349 0.3838);fill-opacity:1;stroke:#48AD84;stroke:color(display-p3 0.2827 0.6770 0.5166);stroke-opacity:1;"/>
<path fill-rule="evenodd" clip-rule="evenodd" d="M8.80925 12.8376C8.94855 13.6074 8.87556 14.7729 8.12501 15.7633C7.94236 15.7633 7.87367 15.2597 7.79571 14.6881C7.71365 14.0864 7.62132 13.4094 7.375 13.1653C7.12855 12.921 6.444 12.8296 5.83578 12.7485C5.25855 12.6715 4.75008 12.6037 4.75012 12.423C5.76796 11.6673 6.9688 11.6056 7.74577 11.753C7.64719 11.2288 7.57379 10.546 7.64172 9.81886C7.10177 9.76962 5.50001 9.42609 5.50001 9.08257C5.50001 8.40432 7.9813 7.10638 9.00291 6.88738C9.01723 6.8738 9.03168 6.86027 9.04628 6.84679C10.4549 5.62659 11.809 5.6789 13.0136 5.72543C13.2659 5.73518 13.5117 5.74468 13.75 5.74217V6.48448H14.5C14.4987 6.60002 14.4983 6.72308 14.4978 6.85223C14.4941 7.93719 14.489 9.45203 13.9333 10.5495C13.1067 10.496 12.4244 10.3196 11.8714 10.0117C11.2047 9.64058 10.6954 9.06147 10.3482 8.20241L9.65185 8.4781C10.0547 9.47481 10.6703 10.1947 11.5037 10.6587C12.134 11.0096 12.8709 11.2041 13.7021 11.2764C13.48 13.0205 12.5332 15.021 11.8751 15.021C11.5285 15.021 11.1819 13.2409 11.1313 12.5653C10.2386 12.8267 9.39421 12.8609 8.80925 12.8376ZM11.6875 8.34025C11.9982 8.34025 12.25 8.091 12.25 7.78352C12.25 7.47605 11.9982 7.22679 11.6875 7.22679C11.3769 7.22679 11.125 7.47605 11.125 7.78352C11.125 8.091 11.3769 8.34025 11.6875 8.34025Z" fill="#D9D9D9" style="fill:#D9D9D9;fill:color(display-p3 0.8510 0.8510 0.8510);fill-opacity:1;"/>
</svg>
